<svg xmlns="http://www.w3.org/2000/svg" width="155.527" height="24.597" viewBox="0 0 155.527 24.597"><path fill="#fff" d="M21.476 10.927c.5-.748.82-1.51.96-2.293.14-.78.1-1.553-.122-2.317-.222-.764-.63-1.44-1.22-2.033-.593-.592-1.37-1.072-2.33-1.442-.962-.37-2.108-.555-3.44-.555-1.66 0-3.115.22-4.364.666-1.25.443-2.264 1-3.044 1.675s-1.312 1.4-1.59 2.182c-.28.78-.27 1.516.025 2.206.182.444.427.797.74 1.06.312.263.646.452 1 .567.352.115.718.172 1.096.172.38 0 .73-.04 1.06-.123-.33.592-.657 1.192-.985 1.8l-.924 1.7c-.288.527-.55 1-.788 1.418-.24.42-.416.737-.53.95-.43.805-.664 1.388-.703 1.75-.042.362.192.543.702.543s.944-.098 1.307-.296c.36-.197.69-.47.986-.814.132-.13.406-.505.826-1.122.42-.615.9-1.342 1.442-2.18.377.08.813.123 1.306.123 1.627 0 3.058-.213 4.29-.64 0 .097-.008.2-.024.307l-.05.333c-.115.625-.365 1.282-.75 1.972s-.922 1.32-1.603 1.886c-.682.568-1.517 1.028-2.503 1.38s-2.128.49-3.427.408c-1.183-.066-2.125-.374-2.823-.924-.7-.55-1.155-1.2-1.368-1.947-.216-.748-.187-1.517.084-2.305.27-.79.786-1.446 1.54-1.972.445-.312.638-.567.58-.765s-.267-.316-.628-.357c-.36-.04-.822.008-1.38.147-.56.14-1.1.383-1.627.728-.526.345-.99.805-1.393 1.38-.402.576-.637 1.29-.702 2.145-.066.854.13 1.66.592 2.417.46.755 1.092 1.417 1.898 1.984.805.566 1.754 1.01 2.848 1.33 1.092.322 2.247.478 3.464.47 1.215-.01 2.448-.21 3.697-.605 1.248-.394 2.44-1.02 3.573-1.874.625-.475 1.143-1.01 1.554-1.6.41-.593.71-1.205.9-1.838.19-.632.267-1.27.234-1.91-.032-.642-.18-1.25-.442-1.825.87-.56 1.556-1.212 2.058-1.96zm-6.62 1.74c-.526.164-1.084.262-1.677.294-.132.018-.252.026-.358.026h-.308c.18-.296.36-.588.542-.875.18-.287.36-.58.542-.875.13.018.267.03.406.037.14.008.284.03.433.062.805.148 1.43.37 1.873.666-.443.28-.93.5-1.454.666zm4.302-4.12c-.27.855-.744 1.627-1.417 2.317-.395-.278-.85-.52-1.367-.726-.518-.206-1.09-.35-1.714-.433h-.1l1.233-2.07c.345-.625.52-1.098.53-1.418.01-.32-.083-.55-.27-.69-.19-.14-.428-.213-.715-.222-.288-.008-.555-.013-.802-.013-.23 0-.435-.004-.617-.012-.182-.007-.35.012-.505.062-.157.05-.305.156-.445.32-.14.166-.292.42-.455.765-.132.247-.317.608-.555 1.084-.24.48-.522 1.012-.85 1.604-.428-.114-.783-.32-1.062-.615-.28-.297-.456-.63-.53-1-.074-.37-.037-.76.11-1.17.15-.413.432-.794.85-1.147.42-.353.99-.654 1.714-.9.724-.247 1.62-.403 2.688-.468 1.298-.066 2.3.13 3.007.592.706.46 1.163 1.05 1.37 1.775.205.722.172 1.51-.1 2.365zM35.93 8.153c.255.1.54.136.85.112.313-.025.63-.107.95-.247.32-.14.6-.32.838-.543.24-.22.408-.468.506-.74.098-.27.09-.545-.025-.825-.133-.28-.326-.473-.58-.58-.255-.106-.535-.144-.84-.11-.303.034-.61.128-.923.283-.312.156-.584.345-.813.567-.23.222-.4.468-.505.74-.108.27-.105.54.01.8.1.264.275.445.53.543zM154.022 13.28c-.123-.048-.28-.027-.47.062-.188.092-.365.243-.53.457-.706.887-1.465 1.61-2.28 2.17-.812.558-1.663 1.01-2.55 1.354.23-.476.455-.94.677-1.393.22-.45.463-.874.726-1.268l.518-.863c.198-.33.396-.67.59-1.024.2-.353.396-.706.593-1.06.198-.354.378-.687.542-1 .162-.295.237-.52.22-.677-.016-.156-.09-.264-.22-.32-.133-.06-.313-.08-.543-.063-.23.017-.477.04-.74.074-.28.05-.505.096-.678.137s-.33.11-.47.21c-.14.098-.27.238-.394.418s-.26.427-.407.74c-.182.344-.355.693-.52 1.047l-.542 1.17c-.23.412-.455.81-.677 1.197-.222.385-.452.726-.69 1.022-.238.296-.485.534-.74.715-.255.18-.54.27-.85.27-.197 0-.342-.082-.432-.246s-.06-.464.086-.9c.15-.435.445-1.038.888-1.81s1.1-1.767 1.973-2.984c.197-.28.308-.493.333-.64.024-.148-.02-.255-.135-.32-.115-.067-.28-.096-.494-.087-.214.007-.454.027-.716.06-.278.05-.513.098-.702.147-.19.05-.363.13-.518.235-.157.107-.313.25-.468.43-.157.18-.333.412-.53.69-.428.593-.85 1.287-1.27 2.084-.092.176-.17.367-.254.548-.238.386-.513.75-.83 1.09-.337.363-.694.683-1.073.963-.38.28-.753.5-1.123.665-.37.165-.71.247-1.023.247-.213 0-.337-.063-.37-.186-.034-.123-.012-.288.062-.494.073-.206.176-.44.308-.703.13-.263.263-.526.394-.79.083-.163.222-.435.42-.813.197-.378.41-.772.64-1.183.23-.41.448-.805.653-1.183.207-.378.36-.65.458-.813 0-.017.008-.034.024-.05.148-.262.193-.524.136-.79-.058-.262-.165-.48-.32-.652-.158-.172-.338-.275-.544-.308-.206-.033-.38.05-.53.247-.13.198-.27.383-.42.556-.146.172-.32.316-.517.432-.196.114-.423.184-.678.21-.255.023-.556-.014-.9-.112.08-.23.17-.46.27-.69.1-.23.168-.448.21-.653.04-.206.044-.39.012-.555-.033-.164-.148-.288-.345-.37-.264-.115-.547-.12-.85-.012-.304.106-.596.292-.876.555-.278.264-.53.576-.75.938-.222.36-.382.735-.48 1.122-.1.386-.127.76-.086 1.122.04.362.192.674.456.937-.115.213-.234.422-.357.628-.124.206-.25.398-.382.58-.246.41-.538.796-.874 1.158-.337.362-.695.682-1.072.962-.378.28-.756.5-1.135.665-.38.165-.715.247-1.01.247-.215 0-.338-.065-.37-.198-.034-.13-.018-.3.048-.505.065-.205.164-.435.295-.69.132-.253.27-.513.42-.776.146-.246.315-.533.505-.862.188-.33.384-.67.59-1.023l.617-1.06c.206-.354.39-.687.555-1 .164-.295.238-.52.222-.677-.016-.155-.09-.263-.222-.32-.13-.058-.313-.078-.543-.062-.23.017-.476.04-.74.074-.246.05-.456.095-.628.136-.174.04-.327.104-.457.185-.133.084-.25.194-.358.334-.107.14-.226.325-.357.555-.427-.428-.937-.695-1.53-.8-.59-.108-1.206-.072-1.847.11-.64.18-1.28.497-1.922.948-.64.452-1.217 1.023-1.726 1.713-.238.326-.434.65-.6.972-.235.38-.51.74-.83 1.075-.346.362-.707.682-1.085.962-.378.278-.75.5-1.122.664-.37.165-.71.247-1.023.247-.197 0-.317-.064-.357-.197-.042-.13-.025-.3.05-.505.073-.205.176-.435.307-.69.13-.253.27-.513.42-.776.147-.247.315-.534.505-.863.188-.33.382-.67.58-1.024.196-.353.397-.706.603-1.06.206-.354.39-.687.555-1 .165-.295.238-.52.22-.677-.015-.156-.09-.264-.22-.32-.13-.06-.312-.08-.542-.063-.23.017-.478.04-.74.074-.263.05-.485.096-.666.137-.182.04-.342.11-.48.21-.14.098-.272.238-.395.418-.124.18-.26.427-.407.74-.182.344-.354.693-.518 1.047l-.542 1.17c-.247.412-.48.81-.703 1.197-.223.385-.448.726-.678 1.022-.23.296-.472.534-.728.715-.255.18-.54.27-.85.27-.198 0-.342-.082-.432-.246s-.062-.464.086-.9c.148-.435.443-1.038.888-1.81.444-.772 1.1-1.767 1.973-2.984.198-.28.305-.493.32-.64.017-.148-.028-.255-.134-.32-.107-.067-.268-.096-.48-.087-.214.007-.453.027-.716.06-.28.05-.514.098-.702.147-.19.05-.362.13-.52.235-.155.107-.31.25-.467.43-.155.18-.332.412-.53.69-.427.593-.854 1.287-1.28 2.084-.085.157-.15.328-.23.49-.392.554-.797 1.03-1.214 1.433-.42.4-.822.722-1.208.96-.386.24-.74.392-1.06.457-.32.066-.58.033-.776-.1-.148-.098-.21-.34-.185-.726.024-.385.114-.842.27-1.368.157-.526.376-1.097.653-1.713.28-.618.6-1.196.962-1.74.328-.493.702-1.047 1.122-1.664.42-.616.833-1.21 1.245-1.788h3.4c.213 0 .448-.065.703-.196.255-.13.502-.296.74-.494.24-.196.448-.402.63-.615.18-.214.303-.41.37-.592.064-.18.06-.315-.014-.407-.074-.09-.244-.11-.505-.062-.345.084-.876.17-1.59.26-.715.09-1.492.193-2.33.308l.098-.124c.362-.394.525-.656.493-.788-.033-.13-.176-.185-.43-.16s-.577.107-.963.247-.76.284-1.122.43c-.426.183-.98.38-1.663.593-.682.214-1.335.354-1.96.42-.214.015-.416.085-.604.21-.188.122-.332.258-.43.405-.1.15-.145.28-.136.396.007.115.11.172.308.172h2.293c-.263.362-.505.715-.727 1.06-.22.346-.423.65-.603.913-1.068 1.563-1.833 2.93-2.293 4.105-.025.063-.042.12-.065.182-.36.485-.776.93-1.254 1.335-.486.41-.99.76-1.516 1.047-.527.287-1.053.5-1.578.64-.527.14-1.003.168-1.43.086-.248-.05-.478-.144-.69-.283-.215-.14-.383-.337-.507-.592-.123-.254-.176-.567-.16-.936.017-.37.14-.81.37-1.32.33-.754.706-1.346 1.134-1.774.426-.427.812-.723 1.158-.887.345-.165.612-.214.8-.15.19.068.21.215.062.445-.51.263-.854.58-1.035.95-.182.37-.227.694-.135.974.09.28.295.477.616.59.32.116.727.05 1.22-.196.412-.197.728-.476.95-.838.222-.36.336-.735.346-1.12.008-.388-.1-.756-.32-1.11-.223-.354-.58-.63-1.073-.827-.593-.246-1.192-.314-1.8-.208-.61.107-1.19.333-1.74.678-.55.346-1.05.772-1.503 1.282-.45.51-.817 1.043-1.096 1.602-.11.222-.204.44-.288.654-.24.387-.52.754-.846 1.097-.345.362-.708.682-1.084.962-.38.28-.752.5-1.123.665-.37.165-.712.247-1.024.247-.197 0-.304-.075-.32-.223-.018-.148.02-.337.11-.568.09-.23.223-.48.395-.752.173-.27.342-.53.506-.777.477-.706.826-1.36 1.048-1.96.22-.6.308-1.116.26-1.552s-.24-.776-.568-1.023c-.33-.247-.805-.37-1.43-.37-.51 0-1.01.14-1.504.42-.492.28-.978.64-1.454 1.083.247-.525.357-.896.333-1.11-.024-.21-.25-.303-.677-.27-.28.033-.52.07-.728.11-.205.043-.398.116-.58.223-.18.108-.35.25-.504.432-.155.18-.308.427-.456.74-.147.312-.303.628-.468.948-.165.32-.332.666-.505 1.036l-.337.733c-.225.352-.478.688-.77 1.003-.337.362-.696.682-1.073.962-.378.28-.756.5-1.134.665-.378.165-.714.247-1.01.247-.213 0-.337-.065-.37-.198-.034-.132-.018-.3.048-.506.065-.205.165-.435.296-.69.13-.253.27-.513.42-.776.147-.247.315-.534.504-.863.188-.33.386-.67.59-1.023l.618-1.06c.206-.354.39-.687.555-1 .164-.295.238-.52.222-.677-.017-.155-.092-.263-.223-.32-.13-.058-.312-.078-.542-.062s-.477.04-.74.074c-.245.053-.455.1-.628.14-.172.04-.325.104-.455.185-.132.083-.25.193-.358.333-.107.14-.225.325-.357.555-.427-.427-.937-.694-1.528-.8-.593-.107-1.21-.07-1.85.11-.64.182-1.282.498-1.923.95-.64.45-1.217 1.022-1.726 1.712-.54.74-.895 1.472-1.06 2.195-.164.723-.172 1.373-.024 1.947.147.577.436 1.04.862 1.394.427.353.962.53 1.603.53.626 0 1.185-.144 1.677-.432.494-.288.92-.62 1.282-.998.048.493.262.854.64 1.084.378.23.84.345 1.38.345.38 0 .86-.147 1.443-.443.583-.295 1.17-.67 1.763-1.123.21-.16.41-.332.61-.503-.004.015-.013.034-.02.05l-.37 1.06c-.13.378-.12.63.04.762.155.132.43.197.824.197h.617c.164 0 .3-.074.406-.22.108-.15.243-.403.408-.766.264-.607.613-1.28 1.048-2.02.435-.74.895-1.438 1.38-2.096.485-.657.95-1.208 1.394-1.652.443-.443.806-.673 1.084-.69.345-.016.498.124.456.42-.04.295-.176.664-.407 1.108-.23.444-.502.924-.814 1.44-.31.52-.566.984-.762 1.395-.247.542-.367 1.007-.36 1.393.01.386.108.706.297.96.188.255.447.44.776.556.33.115.69.172 1.087.172.377 0 .858-.147 1.44-.443.585-.295 1.173-.67 1.765-1.123.54-.412 1.047-.87 1.533-1.364.02.46.11.875.28 1.242.237.518.62.928 1.145 1.232.525.305 1.167.456 1.922.456.675 0 1.348-.11 2.022-.333.674-.222 1.33-.534 1.972-.938.64-.402 1.258-.89 1.85-1.466.017-.018.032-.038.05-.055-.016.135-.034.274-.04.4-.023.79.142 1.385.494 1.787.354.403.818.604 1.393.604.542 0 1.1-.12 1.676-.357.575-.24 1.137-.563 1.688-.975.353-.264.692-.57 1.024-.9-.07.548-.04 1.017.11 1.392.22.56.718.838 1.49.838.51 0 1.028-.14 1.555-.42.526-.278 1.036-.705 1.528-1.28-.033.59.153 1.022.555 1.293.403.272.892.407 1.468.407.395 0 .88-.147 1.455-.443.575-.295 1.162-.67 1.763-1.123.472-.356.915-.752 1.342-1.17.004.285.034.556.1.812.148.577.436 1.04.862 1.394.428.353.962.53 1.603.53.625 0 1.184-.144 1.677-.432.493-.288.92-.62 1.28-.998.05.493.264.854.643 1.084.378.23.84.345 1.38.345.378 0 .86-.147 1.442-.443.583-.295 1.17-.67 1.762-1.123.592-.453 1.155-.954 1.69-1.504.533-.55.94-1.08 1.22-1.59.295-.346.558-.74.788-1.185.395.1.826.1 1.295 0 .468-.097.915-.286 1.343-.565-.263.378-.535.785-.814 1.22s-.56.893-.84 1.37c-.64 1.167-.902 2.095-.788 2.786s.567 1.036 1.356 1.036c.476 0 1.01-.147 1.602-.443.592-.295 1.175-.67 1.75-1.123.288-.227.566-.465.834-.716-.055.418-.058.79.004 1.098-.444.148-.863.32-1.257.518-.558.313-.974.674-1.245 1.085-.27.41-.415.83-.43 1.257-.017.427.085.834.308 1.22.222.386.55.695.986.925.435.23.96.36 1.578.395.616.033 1.317-.09 2.107-.37.92-.33 1.68-.842 2.28-1.54.6-.7 1.137-1.467 1.615-2.307.608-.198 1.216-.435 1.824-.715.607-.278 1.196-.604 1.764-.973.566-.37 1.104-.797 1.614-1.283.51-.484.97-1.048 1.38-1.69.198-.295.292-.53.284-.7-.005-.172-.07-.283-.194-.333zM76.82 15.525c-.675.724-1.357 1.085-2.047 1.085-.296 0-.534-.067-.714-.198-.183-.13-.296-.304-.347-.518-.05-.214-.046-.46.013-.74.057-.28.168-.56.333-.84.245-.41.54-.775.886-1.095.345-.322.703-.58 1.072-.778.37-.197.735-.324 1.097-.382.36-.058.682-.037.96.062.248.083.454.24.618.47-.575 1.232-1.2 2.21-1.874 2.932zm49.923 0c-.674.724-1.356 1.085-2.046 1.085-.296 0-.534-.067-.715-.198s-.295-.304-.346-.518c-.05-.214-.045-.46.013-.74.056-.28.167-.56.332-.84.247-.41.542-.775.888-1.095.345-.322.703-.58 1.072-.778.37-.197.735-.324 1.098-.382.36-.058.682-.037.96.062.247.083.453.24.617.47-.576 1.232-1.2 2.21-1.874 2.932zm16.184 5.154c-.6.36-1.13.542-1.59.542-.377 0-.657-.09-.838-.27s-.255-.396-.224-.642c.033-.247.182-.498.444-.75.263-.257.657-.475 1.183-.655.444-.163.917-.245 1.418-.245s1 .05 1.492.147c-.656.887-1.285 1.51-1.885 1.873zM74.556 4.406c-.255-.51-.674-.94-1.257-1.295-.584-.353-1.33-.537-2.232-.554-1.184-.032-2.31.19-3.377.666-1.068.476-1.996 1.102-2.785 1.874-.23-.396-.392-.827-.482-1.295-.09-.467-.094-.964-.012-1.49.083-.46.03-.75-.16-.864-.188-.114-.43-.106-.728.025-.295.132-.607.37-.937.716-.33.345-.596.748-.8 1.208-.206.46-.317.96-.334 1.503-.016.543.148 1.077.493 1.603.345.575.78 1.06 1.308 1.455-.13.477-.175.957-.134 1.44.04.487.15.955.333 1.407.18.452.425.88.738 1.282.312.403.683.76 1.11 1.072.46.346.83.728 1.11 1.146.278.42.48.847.603 1.282.125.436.174.87.148 1.307-.024.437-.12.85-.283 1.246-.23.543-.633 1.02-1.21 1.43-.574.41-1.223.666-1.946.765-.66.1-1.222.033-1.69-.197-.468-.23-.842-.546-1.122-.95-.28-.4-.46-.858-.542-1.367-.083-.51-.066-.994.05-1.455.113-.46.33-.87.652-1.232.32-.36.735-.59 1.245-.69.328-.065.493-.193.493-.382 0-.188-.116-.378-.345-.567-.23-.19-.542-.355-.936-.495-.395-.14-.822-.185-1.282-.136-.13.013-.26.05-.39.087-.886.29-1.783 1.21-2.247 1.745l-.026.04c-.004.005-.005.01-.008.015-.066.082-.138.153-.206.23l-.084.108-.006-.006c-.237.26-.482.507-.75.714-.658.51-1.348.764-2.072.764-.36 0-.596-.11-.702-.333-.107-.222-.14-.51-.1-.862.04-.354.14-.74.297-1.16.154-.42.323-.826.503-1.22.116-.263.284-.632.506-1.11.22-.476.46-.998.714-1.563.254-.568.526-1.16.813-1.776.287-.616.56-1.2.813-1.75l.678-1.467.444-.962c.13-.312.16-.53.086-.653s-.21-.188-.407-.197c-.197-.01-.438.024-.726.098-.288.074-.58.153-.875.234-.297.083-.527.165-.69.247-.165.083-.305.194-.42.333-.116.14-.225.32-.332.543-.108.22-.243.513-.408.874-.1.23-.233.53-.407.9-.173.37-.358.768-.554 1.196-.2.427-.4.87-.606 1.33-.206.462-.39.89-.555 1.284-.444-.28-.946-.436-1.505-.47s-1.133.06-1.725.272c-.593.215-1.18.535-1.763.962-.584.427-1.114.96-1.59 1.602-.228.31-.414.62-.574.928-.384.54-.78 1.015-1.19 1.414-.418.412-.825.736-1.22.974-.394.238-.75.386-1.072.443-.32.058-.57.02-.75-.11-.197-.15-.338-.36-.42-.63-.083-.27-.115-.583-.1-.937.017-.353.084-.74.198-1.16.115-.418.27-.85.47-1.292.327-.247.693-.513 1.095-.8.403-.29.806-.588 1.21-.9.4-.313.803-.63 1.207-.95.402-.32.768-.63 1.097-.925 1.134-1.035 1.86-1.963 2.182-2.786.32-.823.207-1.415-.334-1.776-.33-.213-.744-.272-1.245-.173-.5.1-1.06.363-1.677.79-.616.427-1.273 1.015-1.972 1.763-.697.748-1.416 1.664-2.156 2.75-1.068 1.56-1.81 2.93-2.22 4.103-.02.058-.033.108-.05.165-.247.41-.542.795-.886 1.155-.338.365-.7.685-1.078.965-.378.28-.752.5-1.12.665-.37.165-.712.247-1.024.247-.198 0-.317-.065-.357-.198-.043-.13-.026-.3.048-.505.074-.206.177-.436.308-.69.132-.254.27-.514.42-.777.146-.247.315-.534.503-.863.19-.33.382-.67.58-1.023.197-.353.397-.706.603-1.06.206-.354.39-.687.555-1 .165-.295.243-.52.235-.677-.01-.155-.084-.263-.223-.32-.14-.058-.324-.078-.555-.062-.23.017-.476.04-.74.074-.262.05-.483.095-.664.136-.18.04-.34.11-.48.21-.14.098-.272.238-.395.418-.124.18-.26.427-.407.74-.148.312-.3.628-.456.948-.157.32-.32.666-.494 1.036-.104.224-.213.464-.323.712-.23.36-.49.705-.797 1.025-.345.362-.706.682-1.084.962-.378.278-.75.5-1.122.664-.37.165-.71.247-1.023.247-.198 0-.317-.064-.358-.197-.042-.13-.025-.3.05-.505.073-.205.175-.435.307-.69.13-.253.27-.513.42-.776.146-.247.314-.534.504-.863.188-.33.382-.67.58-1.024.196-.353.397-.706.603-1.06.206-.354.39-.687.555-1 .165-.295.238-.52.222-.677-.016-.156-.09-.264-.222-.32-.132-.06-.312-.08-.542-.063-.23.017-.478.04-.74.074-.264.05-.485.096-.666.137-.182.04-.342.11-.48.21-.14.098-.272.238-.396.418s-.26.427-.407.74c-.18.344-.353.693-.516 1.047l-.543 1.17c-.246.412-.48.81-.7 1.197-.224.385-.45.726-.68 1.022-.23.296-.472.534-.727.715-.254.18-.538.27-.85.27-.198 0-.342-.082-.432-.246s-.06-.464.087-.9c.147-.435.443-1.038.888-1.81.443-.772 1.1-1.767 1.972-2.984.197-.28.304-.493.32-.64.016-.148-.03-.255-.135-.32-.107-.067-.268-.096-.48-.087-.214.007-.452.027-.715.06-.28.05-.514.098-.703.147-.19.05-.362.13-.52.235-.155.107-.31.25-.467.43-.156.18-.333.412-.53.69-.428.593-.854 1.287-1.282 2.084-.427.798-.772 1.657-1.035 2.577-.263.937-.284 1.685-.06 2.243.22.56.717.838 1.49.838.51 0 1.026-.14 1.553-.42.525-.278 1.035-.705 1.528-1.28-.032.59.153 1.022.556 1.293.403.272.892.407 1.468.407.394 0 .878-.147 1.455-.443.574-.294 1.16-.67 1.76-1.122.247-.185.482-.383.715-.585-.034.16-.07.323-.074.463-.006.386.075.706.248.96.172.255.416.44.727.556.313.115.657.172 1.037.172.394 0 .878-.147 1.454-.443.575-.294 1.162-.67 1.763-1.122.522-.394 1.012-.833 1.478-1.3-.01.162-.02.325-.013.475.033.79.25 1.386.653 1.788.402.404.892.605 1.467.605.542 0 1.102-.12 1.677-.357.575-.24 1.138-.562 1.688-.974.486-.363.948-.796 1.396-1.28.013.24.04.47.096.688.147.577.435 1.04.863 1.394.427.353.962.53 1.603.53.41 0 .796-.066 1.16-.2.36-.13.69-.303.985-.517.296-.213.558-.44.79-.68.23-.237.435-.47.615-.7.033.59.206 1.088.52 1.49.31.404.754.605 1.33.605.51 0 1.063-.127 1.665-.382.6-.255 1.19-.6 1.774-1.035.274-.205.54-.427.8-.66.006.158.007.315.032.475.138.904.508 1.716 1.107 2.44.6.723 1.39 1.315 2.368 1.775.977.46 2.05.674 3.217.64.69-.015 1.365-.14 2.022-.37.656-.23 1.256-.533 1.8-.91.54-.38 1.018-.82 1.43-1.32.41-.5.722-1.023.936-1.565.214-.576.354-1.176.42-1.8.065-.625.02-1.25-.136-1.874-.156-.626-.428-1.238-.814-1.838-.386-.6-.924-1.17-1.615-1.713-.33-.23-.624-.477-.887-.74-.264-.263-.485-.518-.666-.765 1.167.28 2.325.395 3.476.345 1.068-.033 1.972-.234 2.712-.603.74-.37 1.31-.814 1.713-1.332.402-.517.64-1.076.714-1.677.074-.597-.016-1.152-.27-1.662zM44.276 8.35c.377-.476.72-.887 1.023-1.232.302-.345.566-.604.788-.776.222-.172.383-.226.48-.16.083.082.042.238-.124.468-.164.23-.41.513-.74.85-.328.338-.718.708-1.17 1.11-.452.402-.924.81-1.418 1.22.396-.51.78-1.003 1.16-1.48zm5.843 7.088c-.544.782-1.16 1.172-1.85 1.172-.295 0-.534-.066-.715-.197s-.296-.304-.345-.518c-.05-.214-.045-.46.012-.74.058-.28.168-.56.333-.84.246-.41.542-.775.888-1.095.345-.32.702-.58 1.072-.777.37-.197.73-.324 1.084-.382.352-.057.67-.036.948.063l.246.098c-.574 1.365-1.132 2.438-1.675 3.218zm22.045-8.345c-.354.362-.875.6-1.565.715-.64.098-1.31.062-2.01-.11-.7-.174-1.35-.448-1.96-.827l.272-.393c.214-.296.48-.563.8-.8.32-.24.667-.45 1.036-.63.37-.18.753-.32 1.147-.418.395-.1.765-.15 1.11-.15.59 0 1.034.153 1.33.457.296.304.432.65.407 1.035-.025.385-.214.76-.567 1.12z"/></svg>