<svg xmlns="http://www.w3.org/2000/svg" width="210" height="25.549" viewBox="-1.487 -0.951 210 25.549" enable-background="new -1.487 -0.951 210 25.549"><g fill="#fff"><path d="M16.553 7.353l2.45 1.388c.42-.245 3.367-2.14 3.62-2.14.055 0 .105.01.15.028-.745-1.55-1.814-2.914-3.12-4.006l-3.1 1.826v2.905zM23.026 7.188c-.026.4-.162.868-.288 1.24-.8 2.31-2.972 3.905-5.373 3.905-3.137 0-5.69-2.606-5.69-5.81 0-2.94 2.152-5.38 4.932-5.758-1.424-.598-2.99-.93-4.63-.93C5.36-.164 0 5.2 0 11.814c0 2.58.816 4.968 2.203 6.924.05-.354.216-.69.466-.943l8.65-8.832c.66 1.7 1.995 3.06 3.658 3.734L6.315 21.54c-.19.195-.437.34-.705.418 1.844 1.16 4.026 1.83 6.365 1.83 6.614 0 11.976-5.362 11.976-11.975 0-1.64-.328-3.202-.924-4.625zM6.797 18.142c0-.453-.37-.83-.813-.83-.444 0-.813.377-.813.83 0 .455.37.83.814.83.444 0 .813-.375.813-.83z"/></g><path fill="#fff" d="M35.232 4.093c.736 0 1.407.064 2.015.194.605.13 1.125.344 1.558.64.433.295.77.69 1.007 1.18.238.49.357 1.097.357 1.818 0 .78-.178 1.43-.53 1.95-.355.52-.878.945-1.57 1.277.95.274 1.663.754 2.13 1.44.47.686.705 1.51.705 2.478 0 .78-.15 1.455-.455 2.026-.302.568-.71 1.035-1.223 1.396-.513.36-1.098.627-1.754.8-.657.173-1.33.262-2.024.262h-7.493V4.094h7.275zM34.8 10.35c.605 0 1.103-.144 1.493-.433.39-.29.584-.76.584-1.408 0-.36-.065-.658-.195-.888-.13-.23-.302-.412-.52-.542-.215-.13-.465-.22-.746-.27-.282-.05-.574-.077-.877-.077h-3.184v3.616H34.8zm.193 6.56c.332 0 .65-.03.953-.095.303-.066.57-.175.8-.326.23-.152.415-.358.553-.618s.204-.593.204-.996c0-.794-.224-1.36-.67-1.7-.45-.34-1.04-.51-1.776-.51h-3.703v4.245h3.638zM52.83 18.372c-1.168 1.018-2.785 1.528-4.85 1.528-2.093 0-3.713-.504-4.86-1.518-1.148-1.007-1.722-2.567-1.722-4.676V4.093h3.4v9.614c0 .42.035.83.108 1.233.07.405.223.763.455 1.073.232.31.552.562.965.757.412.194.963.292 1.655.292 1.214 0 2.05-.27 2.512-.812.462-.54.693-1.39.693-2.544V4.093h3.4v9.614c0 2.093-.585 3.65-1.754 4.665zM59.17 4.093v15.462h-3.4V4.093h3.4zM63.82 4.093v12.602h7.537v2.86H60.42V4.093h3.4zM80.845 19.294c.72-1.093 1.647-2.057 2.315-3.184.717-1.21 1.454-2.41 2.173-3.62.194-.33.456-.53.74-.625 0-.043.004-.085.004-.13 0-1.284-.177-2.402-.53-3.355-.354-.953-.845-1.747-1.473-2.382-.63-.635-1.37-1.11-2.23-1.43-.86-.316-1.786-.476-2.783-.476h-6.667v15.462h6.668c.62 0 1.194-.057 1.73-.164.017-.032.034-.064.055-.096zm-2.022-2.6h-3.03V6.95h2.424c.838 0 1.542.12 2.112.358.57.238 1.027.58 1.374 1.028.346.447.596.985.747 1.613.152.627.23 1.33.23 2.11 0 .853-.11 1.574-.326 2.166s-.506 1.072-.866 1.44c-.36.368-.772.63-1.234.79-.463.16-.94.238-1.43.238zM99.345 13.837c-.21-.446-.5-.827-.866-1.138-.37-.31-.795-.57-1.278-.78-.483-.208-1-.385-1.55-.53l-3.767-.93c-.317-.073-.617-.167-.898-.282s-.53-.268-.746-.455c-.217-.188-.387-.415-.51-.682-.12-.267-.183-.58-.183-.942 0-.577.107-1.06.325-1.45.215-.39.5-.704.854-.942s.766-.41 1.234-.52c.47-.108.956-.162 1.462-.162.548 0 1.07.076 1.57.228.497.15.938.375 1.32.67.382.297.692.666.93 1.106s.373.956.4 1.548h1.474c0-.794-.155-1.49-.466-2.09s-.726-1.1-1.244-1.504c-.52-.404-1.127-.707-1.82-.91-.692-.2-1.42-.302-2.186-.302-.718 0-1.344.074-1.89.21-.072.497-.37.955-.895 1.13-.05.08-.112.15-.18.216-.103.32-.306.6-.61.772-.058.285-.193.548-.402.75-.106.328-.32.616-.64.786-.026.03-.053.06-.082.09 0 .458-.185.917-.56 1.19.048.275.12.524.225.746.194.42.45.772.77 1.06.317.29.688.52 1.114.694.424.173.86.317 1.31.434l3.442.843c.36.088.73.2 1.104.337.376.14.718.315 1.03.53.31.218.56.484.757.802.193.316.292.69.292 1.126 0 .562-.138 1.042-.412 1.438s-.617.722-1.028.977c-.41.253-.855.438-1.332.553-.476.115-.916.172-1.32.172-.708 0-1.372-.067-1.992-.204-.62-.14-1.157-.363-1.612-.683-.455-.315-.812-.742-1.07-1.278-.262-.534-.384-1.2-.37-1.992h-1.473c-.043.953.083 1.77.38 2.446.296.68.718 1.236 1.268 1.668.547.434 1.21.756 1.99.965.78.21 1.625.313 2.534.313.91 0 1.69-.083 2.34-.25.648-.166 1.193-.383 1.634-.648.44-.268.788-.567 1.04-.9.253-.332.447-.66.585-.983.137-.327.224-.634.26-.923.036-.288.054-.52.054-.69 0-.64-.106-1.182-.315-1.63zM107.3 4.093l6.063 15.462h-1.58l-1.884-4.81h-7.04l-1.86 4.81h-1.56l6.215-15.462h1.646zm2.1 9.398l-2.988-7.925-3.096 7.926h6.085zM116.105 4.093l9.008 13.08h.044V4.092h1.473v15.462h-1.646l-9.008-13.08h-.043v13.08h-1.474V4.093h1.645zM139.23 7.178c-.295-.47-.655-.863-1.08-1.18-.427-.318-.897-.56-1.41-.727-.51-.164-1.048-.248-1.612-.248-1.024 0-1.905.195-2.642.584-.736.39-1.34.906-1.808 1.548-.47.643-.816 1.37-1.04 2.177-.224.81-.335 1.64-.335 2.49 0 .838.11 1.666.335 2.48.224.817.57 1.546 1.04 2.188s1.07 1.16 1.808 1.55c.736.39 1.617.583 2.642.583.723 0 1.37-.128 1.95-.388.575-.26 1.074-.614 1.493-1.062.42-.448.76-.97 1.018-1.57.26-.598.428-1.245.5-1.938h1.47c-.1.952-.324 1.812-.67 2.577-.346.763-.794 1.415-1.343 1.948s-1.194.945-1.937 1.232c-.744.29-1.57.435-2.48.435-1.213 0-2.277-.22-3.194-.66-.916-.44-1.68-1.028-2.284-1.766s-1.06-1.59-1.363-2.557c-.304-.967-.455-1.983-.455-3.053 0-1.068.15-2.085.455-3.053.303-.967.758-1.823 1.363-2.565.605-.744 1.368-1.336 2.284-1.776.917-.44 1.98-.66 3.194-.66.737 0 1.454.107 2.154.324.7.217 1.336.538 1.907.963.568.426 1.044.95 1.427 1.57.382.622.624 1.335.727 2.144h-1.473c-.13-.59-.344-1.12-.64-1.59zM153.53 4.093V5.35h-5.392v14.205h-1.473V5.35h-5.368V4.092h12.233zM156.302 4.093v9.57c0 .896.103 1.656.305 2.286.202.626.498 1.138.887 1.535.39.396.867.687 1.43.866.562.183 1.198.272 1.905.272.72 0 1.363-.09 1.927-.27.562-.18 1.038-.47 1.43-.867.39-.397.685-.91.887-1.536.202-.63.305-1.392.305-2.286v-9.57h1.47v9.895c0 .793-.112 1.548-.335 2.262-.224.714-.577 1.34-1.06 1.875-.485.533-1.105.957-1.863 1.265-.76.31-1.68.467-2.762.467-1.068 0-1.98-.157-2.74-.468-.757-.308-1.378-.73-1.86-1.265-.484-.536-.838-1.16-1.062-1.875s-.335-1.47-.335-2.263V4.092h1.47zM174.828 4.093l6.062 15.462h-1.58l-1.884-4.81h-7.04l-1.86 4.81h-1.56l6.216-15.462h1.646zm2.1 9.398l-2.988-7.925-3.098 7.926h6.086zM189.378 4.093c.635 0 1.238.08 1.81.238.57.16 1.066.4 1.494.726.425.326.764.744 1.016 1.256.255.512.38 1.115.38 1.808 0 .982-.253 1.833-.758 2.555-.506.722-1.255 1.185-2.25 1.386v.044c.503.072.92.206 1.255.4.332.194.602.443.81.748.21.303.362.652.456 1.05.097.396.157.827.187 1.288.013.26.027.578.043.953.015.376.043.754.085 1.138.045.384.113.743.207 1.083.094.338.22.603.378.79h-1.623c-.087-.145-.155-.32-.206-.53s-.086-.426-.107-.648c-.02-.225-.04-.444-.054-.66-.016-.22-.03-.407-.044-.564-.03-.55-.076-1.093-.142-1.634-.064-.54-.203-1.025-.412-1.45-.21-.426-.512-.77-.91-1.028-.395-.262-.94-.377-1.633-.35h-5.588v6.867H182.3V4.093h7.078zm-.108 7.34c.447 0 .872-.07 1.277-.206.404-.137.758-.336 1.06-.596.304-.258.547-.572.728-.94.18-.37.27-.79.27-1.268 0-.952-.273-1.703-.823-2.25-.548-.55-1.385-.824-2.51-.824h-5.5v6.084h5.498zM193.837 4.093h1.732l5.087 7.84 5.067-7.84h1.754l-6.106 9.094v6.368H199.9v-6.368l-6.063-9.094z"/><g fill="#fff"><path d="M94.69.128L77.465 23.52"/><path d="M94.236-.208l.932.688-17.252 23.37-.933-.688z"/></g></svg>