<?xml version="1.0" encoding="utf-8"?>
<!-- Generator: Adobe Illustrator 15.0.0, SVG Export Plug-In . SVG Version: 6.00 Build 0)  -->
<!DOCTYPE svg PUBLIC "-//W3C//DTD SVG 1.1//EN" "http://www.w3.org/Graphics/SVG/1.1/DTD/svg11.dtd">
<svg version="1.1" id="Layer_1" xmlns="http://www.w3.org/2000/svg" xmlns:xlink="http://www.w3.org/1999/xlink" x="0px" y="0px"
	 width="196.5px" height="28.5px" viewBox="0 0 196.5 28.5" enable-background="new 0 0 196.5 28.5" xml:space="preserve">
<path fill="#414042" d="M17.825,12.448c0.361-0.533,0.542-1.199,0.542-1.999c0-0.741-0.122-1.362-0.366-1.866
	c-0.245-0.502-0.588-0.907-1.033-1.209c-0.444-0.303-0.977-0.523-1.598-0.656C14.748,6.585,14.06,6.52,13.305,6.52H5.844v15.855
	h7.684c0.71,0,1.401-0.09,2.076-0.267c0.673-0.178,1.273-0.451,1.798-0.821c0.525-0.371,0.943-0.847,1.256-1.434
	c0.311-0.584,0.465-1.276,0.465-2.076c0-0.992-0.241-1.84-0.722-2.542c-0.481-0.701-1.21-1.197-2.187-1.477
	C16.925,13.418,17.461,12.981,17.825,12.448z M9.331,9.228h3.264c0.312,0,0.611,0.027,0.9,0.078
	c0.288,0.051,0.543,0.145,0.766,0.278c0.222,0.134,0.398,0.318,0.532,0.555c0.133,0.236,0.201,0.54,0.201,0.911
	c0,0.666-0.201,1.146-0.599,1.443c-0.401,0.295-0.911,0.443-1.533,0.443h-3.53V9.228z M15.425,18.599
	c-0.14,0.268-0.33,0.476-0.565,0.635c-0.237,0.154-0.511,0.265-0.822,0.332c-0.311,0.066-0.637,0.098-0.977,0.098h-3.73v-4.351
	h3.796c0.755,0,1.363,0.176,1.821,0.521c0.459,0.35,0.689,0.929,0.689,1.744C15.637,17.993,15.566,18.331,15.425,18.599z"/>
<path fill="#414042" d="M19.628,6.52v9.86c0,2.161,0.589,3.761,1.765,4.796c1.178,1.037,2.84,1.553,4.987,1.553
	c2.117,0,3.774-0.52,4.973-1.564c1.2-1.045,1.799-2.639,1.799-4.784V6.52h-3.486v9.86c0,1.183-0.238,2.054-0.71,2.61
	c-0.474,0.556-1.333,0.829-2.576,0.829c-0.711,0-1.278-0.098-1.7-0.298c-0.421-0.2-0.751-0.459-0.988-0.775
	c-0.237-0.317-0.393-0.687-0.466-1.103c-0.075-0.415-0.111-0.833-0.111-1.264V6.52H19.628z"/>
<rect x="34.368" y="6.52" fill="#414042" width="3.486" height="15.855"/>
<polygon fill="#414042" points="39.137,6.52 39.137,22.375 50.352,22.375 50.352,19.443 42.624,19.443 42.624,6.52 "/>
<path fill="#414042" d="M80.75,22.375l1.91-4.928h7.218l1.932,4.928h1.62L87.213,6.52h-1.689l-6.373,15.855H80.75z M86.303,8.029
	l3.063,8.128h-6.239L86.303,8.029z"/>
<polygon fill="#414042" points="96.108,8.962 105.347,22.375 107.034,22.375 107.034,6.52 105.523,6.52 105.523,19.931 
	105.479,19.931 96.242,6.52 94.554,6.52 94.554,22.375 96.063,22.375 96.063,8.962 "/>
<path fill="#414042" d="M119.913,7.508c-0.584-0.437-1.234-0.767-1.953-0.989c-0.718-0.223-1.455-0.333-2.21-0.333
	c-1.242,0-2.336,0.226-3.274,0.677c-0.941,0.452-1.722,1.059-2.342,1.821c-0.623,0.762-1.091,1.641-1.4,2.631
	c-0.312,0.992-0.465,2.036-0.465,3.131c0,1.096,0.153,2.139,0.465,3.131c0.31,0.992,0.777,1.865,1.4,2.62
	c0.62,0.754,1.4,1.357,2.342,1.81c0.938,0.453,2.032,0.681,3.274,0.681c0.933,0,1.78-0.15,2.543-0.445
	c0.763-0.298,1.423-0.72,1.988-1.269c0.562-0.546,1.021-1.211,1.378-1.998c0.354-0.785,0.583-1.666,0.686-2.642h-1.51
	c-0.072,0.71-0.244,1.373-0.511,1.987c-0.266,0.614-0.614,1.153-1.04,1.608c-0.43,0.46-0.941,0.823-1.536,1.091
	c-0.592,0.266-1.257,0.398-1.998,0.398c-1.052,0-1.954-0.202-2.709-0.6c-0.756-0.399-1.373-0.929-1.853-1.587
	c-0.481-0.659-0.837-1.407-1.067-2.243c-0.229-0.836-0.345-1.683-0.345-2.543c0-0.873,0.115-1.724,0.345-2.554
	c0.23-0.829,0.586-1.572,1.067-2.231c0.479-0.659,1.097-1.19,1.853-1.588c0.755-0.399,1.657-0.6,2.709-0.6
	c0.578,0,1.13,0.085,1.654,0.254c0.525,0.17,1.007,0.418,1.446,0.743c0.436,0.327,0.804,0.73,1.107,1.211s0.522,1.025,0.656,1.632
	h1.509c-0.103-0.828-0.35-1.561-0.743-2.198C120.986,8.48,120.499,7.943,119.913,7.508z"/>
<polygon fill="#414042" points="129.096,22.375 129.096,7.807 134.623,7.807 134.623,6.52 122.077,6.52 122.077,7.807 
	127.581,7.807 127.581,22.375 "/>
<path fill="#414042" d="M135.956,6.52v10.148c0,0.813,0.115,1.588,0.344,2.322c0.229,0.731,0.591,1.37,1.087,1.918
	c0.499,0.55,1.136,0.979,1.91,1.301c0.776,0.315,1.713,0.479,2.811,0.479c1.11,0,2.054-0.164,2.83-0.479
	c0.776-0.321,1.413-0.751,1.91-1.301c0.496-0.548,0.859-1.187,1.089-1.918c0.229-0.734,0.344-1.509,0.344-2.322V6.52h-1.51v9.815
	c0,0.917-0.104,1.7-0.311,2.342c-0.209,0.645-0.513,1.171-0.911,1.576c-0.402,0.409-0.888,0.705-1.466,0.891
	c-0.577,0.184-1.235,0.276-1.976,0.276c-0.726,0-1.377-0.093-1.955-0.276c-0.578-0.186-1.065-0.481-1.466-0.891
	c-0.399-0.405-0.703-0.932-0.908-1.576c-0.21-0.642-0.312-1.425-0.312-2.342V6.52H135.956z"/>
<path fill="#414042" d="M159.127,17.447l1.932,4.928h1.624L156.464,6.52h-1.687l-6.373,15.855H150l1.91-4.928H159.127z
	 M155.553,8.029l3.062,8.128h-6.239L155.553,8.029z"/>
<path fill="#414042" d="M174.77,7.508c-0.434-0.333-0.945-0.582-1.532-0.745c-0.583-0.163-1.199-0.244-1.852-0.244h-7.262v15.855
	h1.51v-7.04h5.729c0.71-0.027,1.269,0.091,1.677,0.356c0.406,0.265,0.717,0.616,0.934,1.053c0.214,0.438,0.354,0.934,0.421,1.488
	c0.066,0.556,0.112,1.114,0.145,1.677c0.016,0.162,0.028,0.355,0.046,0.577c0.015,0.225,0.032,0.447,0.054,0.678
	c0.022,0.229,0.06,0.452,0.11,0.666c0.054,0.217,0.122,0.398,0.212,0.545h1.666c-0.162-0.194-0.292-0.464-0.39-0.808
	c-0.096-0.354-0.166-0.719-0.208-1.112c-0.046-0.392-0.076-0.781-0.09-1.169c-0.016-0.382-0.03-0.709-0.046-0.977
	c-0.03-0.473-0.092-0.911-0.188-1.319c-0.096-0.409-0.25-0.767-0.467-1.079c-0.214-0.31-0.491-0.566-0.833-0.765
	c-0.338-0.201-0.77-0.337-1.288-0.412v-0.043c1.022-0.208,1.793-0.682,2.311-1.422c0.518-0.74,0.775-1.612,0.775-2.62
	c0-0.711-0.128-1.33-0.386-1.854C175.557,8.271,175.209,7.841,174.77,7.508z M174.414,12.259c-0.184,0.379-0.432,0.7-0.741,0.966
	c-0.313,0.267-0.675,0.471-1.089,0.612c-0.413,0.14-0.852,0.21-1.309,0.21h-5.642v-6.24h5.642c1.154,0,2.012,0.281,2.575,0.845
	c0.562,0.562,0.842,1.333,0.842,2.309C174.692,11.449,174.601,11.882,174.414,12.259z"/>
<polygon fill="#414042" points="183.686,22.375 183.686,15.848 189.945,6.52 188.147,6.52 182.951,14.557 177.734,6.52 
	175.957,6.52 182.175,15.848 182.175,22.375 "/>
<path fill="#414042" d="M80.041,1.677l-0.924,1.252h114.382v23.025H57.711l10.094-13.707c0.2,0.421,0.458,0.775,0.778,1.067
	c0.327,0.296,0.708,0.532,1.144,0.711c0.436,0.177,0.884,0.326,1.344,0.444l3.53,0.866c0.371,0.091,0.749,0.205,1.133,0.343
	c0.385,0.142,0.736,0.326,1.055,0.546c0.317,0.222,0.577,0.498,0.777,0.821c0.2,0.325,0.3,0.711,0.3,1.155
	c0,0.578-0.142,1.069-0.424,1.476c-0.281,0.409-0.632,0.74-1.054,0.997c-0.422,0.261-0.876,0.451-1.366,0.569
	c-0.488,0.119-0.94,0.178-1.354,0.178c-0.727,0-1.407-0.07-2.043-0.21c-0.637-0.142-1.188-0.374-1.655-0.699
	c-0.466-0.325-0.831-0.762-1.1-1.314c-0.267-0.545-0.392-1.225-0.376-2.042h-1.511c-0.043,0.978,0.084,1.813,0.388,2.511
	c0.303,0.695,0.737,1.267,1.299,1.709c0.562,0.445,1.244,0.774,2.043,0.991c0.801,0.213,1.666,0.323,2.598,0.323
	c0.933,0,1.732-0.088,2.399-0.26c0.666-0.17,1.226-0.39,1.677-0.665c0.451-0.273,0.806-0.58,1.063-0.922
	c0.261-0.34,0.459-0.677,0.602-1.01c0.14-0.334,0.229-0.647,0.265-0.943c0.038-0.298,0.056-0.532,0.056-0.712
	c0-0.65-0.108-1.206-0.321-1.666c-0.216-0.457-0.512-0.846-0.888-1.166c-0.378-0.317-0.815-0.584-1.312-0.797
	c-0.496-0.216-1.025-0.396-1.587-0.544l-3.863-0.956c-0.326-0.074-0.635-0.168-0.923-0.288c-0.289-0.118-0.543-0.275-0.765-0.466
	c-0.224-0.192-0.396-0.426-0.522-0.699c-0.126-0.274-0.189-0.597-0.189-0.967c0-0.003,0-0.007,0-0.011l2.122-2.877
	c0.113-0.038,0.231-0.07,0.355-0.098c0.479-0.111,0.979-0.166,1.498-0.166c0.564,0,1.1,0.077,1.61,0.233
	c0.511,0.154,0.961,0.385,1.356,0.688c0.391,0.304,0.71,0.681,0.954,1.133c0.244,0.451,0.382,0.981,0.411,1.587h1.51
	c0-0.814-0.159-1.529-0.477-2.143C78.025,8.358,77.6,7.844,77.067,7.43c-0.533-0.415-1.155-0.725-1.865-0.933
	c-0.709-0.208-1.458-0.311-2.243-0.311c-0.249,0-0.482,0.011-0.71,0.028l2.512-3.409l-0.01-0.008l0.827-1.121H1v25.528h49.841
	l0.925-1.251H2.253V2.929h70.94l-7.774,10.556c-0.063-0.958-0.235-1.815-0.515-2.569c-0.363-0.978-0.866-1.791-1.509-2.444
	c-0.644-0.65-1.409-1.139-2.288-1.466c-0.881-0.324-1.832-0.487-2.853-0.487h-6.839v15.855h6.839c0.217,0,0.427-0.01,0.635-0.022
	l-2.653,3.602h-0.007l-0.924,1.251H194.75V1.677H80.041z M58.009,19.443H54.9V9.45h2.487c0.858,0,1.58,0.123,2.166,0.367
	c0.584,0.244,1.054,0.597,1.409,1.055c0.356,0.458,0.611,1.01,0.767,1.654s0.232,1.366,0.232,2.166c0,0.875-0.11,1.613-0.333,2.221
	c-0.222,0.607-0.518,1.1-0.887,1.477c-0.37,0.376-0.793,0.647-1.267,0.808C59.001,19.361,58.513,19.443,58.009,19.443z"/>
</svg>
