<?xml version="1.0" encoding="utf-8"?>
<!-- Generator: Adobe Illustrator 15.0.0, SVG Export Plug-In . SVG Version: 6.00 Build 0)  -->
<!DOCTYPE svg PUBLIC "-//W3C//DTD SVG 1.1//EN" "http://www.w3.org/Graphics/SVG/1.1/DTD/svg11.dtd">
<svg version="1.1" id="Layer_1" xmlns="http://www.w3.org/2000/svg" xmlns:xlink="http://www.w3.org/1999/xlink" x="0px" y="0px"
	 width="210px" height="25.549px" viewBox="-1.487 -0.951 210 25.549" enable-background="new -1.487 -0.951 210 25.549"
	 xml:space="preserve">
<g>
	<path fill="#FFFFFF" d="M16.553,7.353l2.451,1.388c0.418-0.246,3.366-2.14,3.62-2.14c0.054,0,0.104,0.01,0.15,0.027
		c-0.746-1.55-1.815-2.914-3.121-4.006l-3.1,1.826V7.353z"/>
	<path fill="#FFFFFF" d="M23.026,7.188c-0.026,0.401-0.162,0.868-0.288,1.241c-0.8,2.309-2.972,3.904-5.373,3.904
		c-3.137,0-5.69-2.606-5.69-5.81c0-2.941,2.152-5.379,4.932-5.758c-1.424-0.598-2.989-0.929-4.631-0.929
		C5.362-0.164,0,5.198,0,11.813c0,2.58,0.816,4.968,2.203,6.924c0.051-0.354,0.216-0.689,0.466-0.943l8.651-8.832
		c0.66,1.699,1.995,3.06,3.658,3.734L6.315,21.54c-0.191,0.195-0.437,0.34-0.705,0.418c1.844,1.16,4.026,1.83,6.365,1.83
		c6.614,0,11.976-5.362,11.976-11.975C23.951,10.173,23.622,8.611,23.026,7.188z"/>
	<path fill="#FFFFFF" d="M6.797,18.142c0-0.453-0.369-0.829-0.813-0.829c-0.444,0-0.813,0.376-0.813,0.829
		c0,0.455,0.369,0.83,0.813,0.83C6.428,18.972,6.797,18.597,6.797,18.142z"/>
</g>
<path fill="#FFFFFF" d="M35.232,4.093c0.736,0,1.407,0.064,2.015,0.194c0.605,0.13,1.125,0.344,1.558,0.639
	c0.433,0.296,0.769,0.69,1.007,1.18c0.238,0.491,0.357,1.098,0.357,1.819c0,0.779-0.177,1.43-0.53,1.949
	c-0.354,0.52-0.877,0.946-1.57,1.278c0.952,0.274,1.664,0.754,2.132,1.439c0.469,0.687,0.704,1.512,0.704,2.479
	c0,0.78-0.151,1.455-0.455,2.026c-0.302,0.568-0.71,1.035-1.223,1.396c-0.513,0.359-1.098,0.627-1.754,0.801
	c-0.657,0.172-1.331,0.261-2.024,0.261h-7.492V4.093H35.232z M34.799,10.35c0.606,0,1.104-0.144,1.494-0.433
	c0.389-0.289,0.584-0.759,0.584-1.408c0-0.36-0.065-0.657-0.195-0.887c-0.129-0.231-0.302-0.412-0.519-0.542
	c-0.216-0.13-0.466-0.22-0.747-0.271c-0.282-0.05-0.574-0.076-0.877-0.076h-3.183v3.616H34.799z M34.993,16.911
	c0.332,0,0.65-0.032,0.953-0.096c0.303-0.066,0.569-0.175,0.801-0.326c0.23-0.151,0.414-0.357,0.552-0.617s0.205-0.593,0.205-0.996
	c0-0.794-0.224-1.359-0.671-1.7c-0.448-0.339-1.039-0.509-1.775-0.509h-3.703v4.244H34.993z"/>
<path fill="#FFFFFF" d="M52.831,18.372C51.662,19.39,50.045,19.9,47.98,19.9c-2.093,0-3.713-0.504-4.86-1.518
	c-1.148-1.007-1.722-2.567-1.722-4.676V4.093h3.399v9.614c0,0.419,0.036,0.83,0.109,1.233c0.071,0.405,0.223,0.763,0.455,1.073
	c0.231,0.31,0.551,0.562,0.964,0.757c0.412,0.194,0.963,0.292,1.655,0.292c1.214,0,2.051-0.271,2.512-0.812
	c0.462-0.541,0.693-1.39,0.693-2.544V4.093h3.399v9.614C54.584,15.8,54,17.357,52.831,18.372z"/>
<path fill="#FFFFFF" d="M59.171,4.093v15.462h-3.4V4.093H59.171z"/>
<path fill="#FFFFFF" d="M63.821,4.093v12.602h7.536v2.86H60.421V4.093H63.821z"/>
<path fill="#FFFFFF" d="M80.845,19.294c0.721-1.093,1.647-2.057,2.315-3.184c0.717-1.211,1.454-2.409,2.173-3.619
	c0.194-0.331,0.456-0.53,0.74-0.626c0-0.043,0.004-0.085,0.004-0.129c0-1.285-0.177-2.403-0.53-3.356
	c-0.354-0.953-0.845-1.747-1.473-2.382c-0.629-0.635-1.371-1.111-2.23-1.43c-0.859-0.316-1.786-0.476-2.783-0.476h-6.668v15.462
	h6.668c0.619,0,1.193-0.057,1.729-0.164C80.807,19.358,80.824,19.326,80.845,19.294z M78.823,16.694h-3.031V6.95h2.425
	c0.838,0,1.542,0.119,2.112,0.358c0.57,0.238,1.028,0.581,1.375,1.028c0.346,0.447,0.596,0.985,0.747,1.613
	c0.151,0.628,0.228,1.332,0.228,2.112c0,0.852-0.108,1.573-0.325,2.165s-0.506,1.072-0.866,1.44
	c-0.361,0.368-0.772,0.631-1.234,0.789C79.791,16.617,79.314,16.694,78.823,16.694z"/>
<path fill="#FFFFFF" d="M99.345,13.837c-0.209-0.446-0.499-0.827-0.866-1.138c-0.368-0.31-0.794-0.569-1.277-0.778
	c-0.483-0.209-1-0.386-1.549-0.531l-3.768-0.931c-0.317-0.072-0.617-0.166-0.898-0.281s-0.53-0.268-0.746-0.455
	c-0.218-0.188-0.388-0.415-0.51-0.682c-0.122-0.268-0.184-0.581-0.184-0.943c0-0.577,0.107-1.06,0.325-1.45
	c0.215-0.39,0.501-0.704,0.854-0.942s0.766-0.411,1.234-0.52c0.469-0.108,0.956-0.162,1.462-0.162c0.548,0,1.071,0.076,1.57,0.228
	c0.497,0.151,0.938,0.375,1.32,0.671c0.382,0.296,0.692,0.665,0.931,1.105s0.372,0.956,0.4,1.548h1.473
	c0-0.794-0.155-1.49-0.466-2.089s-0.726-1.101-1.244-1.505c-0.521-0.404-1.127-0.707-1.819-0.909
	c-0.693-0.202-1.422-0.303-2.187-0.303c-0.718,0-1.344,0.074-1.89,0.21c-0.072,0.497-0.37,0.955-0.895,1.131
	c-0.051,0.078-0.112,0.149-0.18,0.215c-0.103,0.319-0.306,0.6-0.61,0.772c-0.058,0.285-0.193,0.548-0.402,0.75
	c-0.106,0.328-0.319,0.616-0.641,0.786c-0.025,0.031-0.052,0.061-0.081,0.089c0,0.459-0.186,0.918-0.562,1.192
	c0.049,0.274,0.122,0.523,0.226,0.745c0.194,0.419,0.451,0.772,0.769,1.061c0.318,0.289,0.689,0.52,1.115,0.693
	c0.425,0.173,0.862,0.317,1.311,0.434l3.442,0.843c0.361,0.087,0.729,0.199,1.104,0.336c0.376,0.139,0.718,0.315,1.029,0.531
	c0.31,0.217,0.562,0.483,0.758,0.801c0.193,0.317,0.292,0.692,0.292,1.127c0,0.562-0.138,1.042-0.412,1.438
	s-0.617,0.722-1.028,0.977c-0.411,0.252-0.855,0.437-1.332,0.552c-0.476,0.115-0.916,0.172-1.321,0.172
	c-0.707,0-1.371-0.067-1.991-0.204c-0.621-0.14-1.158-0.364-1.613-0.684c-0.455-0.315-0.812-0.742-1.071-1.278
	c-0.261-0.533-0.383-1.198-0.369-1.991h-1.473c-0.043,0.953,0.083,1.769,0.38,2.446c0.296,0.679,0.718,1.236,1.268,1.668
	c0.547,0.434,1.211,0.756,1.991,0.965c0.779,0.209,1.624,0.313,2.533,0.313c0.91,0,1.689-0.083,2.339-0.25
	c0.649-0.166,1.194-0.383,1.635-0.648c0.44-0.268,0.787-0.567,1.039-0.9c0.253-0.332,0.447-0.659,0.585-0.983
	c0.137-0.326,0.224-0.633,0.26-0.922c0.036-0.288,0.054-0.52,0.054-0.691C99.659,14.827,99.554,14.285,99.345,13.837z"/>
<path fill="#FFFFFF" d="M107.301,4.093l6.062,15.462h-1.581l-1.883-4.809h-7.038l-1.862,4.809h-1.56l6.216-15.462H107.301z
	 M109.401,13.491l-2.989-7.926l-3.096,7.926H109.401z"/>
<path fill="#FFFFFF" d="M116.105,4.093l9.008,13.079h0.044V4.093h1.473v15.462h-1.646l-9.008-13.08h-0.043v13.08h-1.474V4.093
	H116.105z"/>
<path fill="#FFFFFF" d="M139.23,7.178c-0.295-0.469-0.655-0.863-1.081-1.181c-0.426-0.317-0.896-0.559-1.408-0.726
	c-0.512-0.165-1.049-0.249-1.613-0.249c-1.024,0-1.905,0.195-2.642,0.584c-0.736,0.39-1.339,0.906-1.808,1.548
	c-0.469,0.643-0.816,1.369-1.04,2.177c-0.224,0.809-0.335,1.639-0.335,2.49c0,0.837,0.111,1.665,0.335,2.479
	c0.224,0.817,0.571,1.546,1.04,2.188s1.071,1.16,1.808,1.549c0.736,0.391,1.617,0.584,2.642,0.584c0.723,0,1.371-0.129,1.949-0.389
	c0.576-0.26,1.075-0.614,1.494-1.062c0.418-0.448,0.759-0.971,1.017-1.57c0.261-0.598,0.428-1.245,0.499-1.938h1.472
	c-0.1,0.952-0.325,1.812-0.671,2.577c-0.346,0.764-0.794,1.416-1.343,1.949s-1.194,0.945-1.937,1.232
	c-0.744,0.289-1.57,0.435-2.48,0.435c-1.213,0-2.277-0.22-3.194-0.659c-0.916-0.442-1.679-1.029-2.284-1.767
	s-1.061-1.588-1.363-2.556c-0.304-0.967-0.455-1.983-0.455-3.053c0-1.068,0.151-2.085,0.455-3.053
	c0.303-0.967,0.758-1.823,1.363-2.565c0.605-0.744,1.368-1.336,2.284-1.776c0.917-0.44,1.981-0.661,3.194-0.661
	c0.737,0,1.454,0.108,2.154,0.325c0.701,0.217,1.336,0.538,1.907,0.963c0.569,0.426,1.045,0.949,1.428,1.57
	c0.382,0.622,0.624,1.335,0.727,2.144h-1.473C139.741,8.178,139.526,7.647,139.23,7.178z"/>
<path fill="#FFFFFF" d="M153.53,4.093v1.256h-5.392v14.206h-1.473V5.349h-5.368V4.093H153.53z"/>
<path fill="#FFFFFF" d="M156.302,4.093v9.571c0,0.895,0.103,1.655,0.305,2.285c0.202,0.627,0.498,1.139,0.887,1.536
	c0.39,0.396,0.867,0.687,1.43,0.866c0.562,0.182,1.198,0.271,1.905,0.271c0.722,0,1.364-0.089,1.928-0.271
	c0.562-0.18,1.038-0.47,1.429-0.866c0.39-0.397,0.686-0.909,0.888-1.536c0.202-0.63,0.305-1.391,0.305-2.285V4.093h1.471v9.896
	c0,0.794-0.112,1.549-0.335,2.263c-0.224,0.714-0.577,1.339-1.061,1.875c-0.484,0.533-1.104,0.957-1.862,1.265
	c-0.759,0.311-1.68,0.467-2.762,0.467c-1.068,0-1.981-0.156-2.74-0.467c-0.757-0.308-1.378-0.731-1.86-1.265
	c-0.484-0.536-0.838-1.161-1.062-1.875s-0.335-1.469-0.335-2.263V4.093H156.302z"/>
<path fill="#FFFFFF" d="M174.828,4.093l6.062,15.462h-1.581l-1.883-4.809h-7.039l-1.861,4.809h-1.56l6.216-15.462H174.828z
	 M176.928,13.491l-2.988-7.926l-3.098,7.926H176.928z"/>
<path fill="#FFFFFF" d="M189.378,4.093c0.635,0,1.238,0.079,1.809,0.238c0.571,0.159,1.067,0.4,1.495,0.725
	c0.425,0.326,0.764,0.744,1.016,1.256c0.255,0.512,0.379,1.115,0.379,1.808c0,0.982-0.252,1.833-0.757,2.555
	c-0.506,0.722-1.255,1.185-2.251,1.386v0.043c0.504,0.072,0.922,0.206,1.256,0.4c0.332,0.194,0.602,0.443,0.811,0.748
	c0.209,0.303,0.361,0.652,0.455,1.049c0.096,0.397,0.156,0.828,0.186,1.289c0.013,0.26,0.027,0.578,0.043,0.953
	c0.015,0.376,0.043,0.754,0.085,1.138c0.045,0.383,0.113,0.742,0.207,1.082c0.094,0.338,0.22,0.603,0.378,0.791h-1.623
	c-0.087-0.146-0.155-0.322-0.206-0.531s-0.087-0.426-0.108-0.648c-0.021-0.225-0.039-0.444-0.054-0.661
	c-0.015-0.218-0.029-0.406-0.043-0.563c-0.029-0.55-0.076-1.094-0.142-1.635c-0.064-0.541-0.203-1.025-0.412-1.451
	c-0.209-0.425-0.512-0.768-0.909-1.027c-0.396-0.262-0.942-0.377-1.634-0.349h-5.587v6.866h-1.472V4.093H189.378z M189.27,11.433
	c0.447,0,0.872-0.069,1.277-0.206c0.404-0.137,0.758-0.336,1.061-0.596c0.303-0.259,0.546-0.573,0.727-0.942
	c0.18-0.368,0.269-0.79,0.269-1.267c0-0.952-0.272-1.703-0.822-2.251c-0.548-0.549-1.385-0.823-2.511-0.823h-5.5v6.084H189.27z"/>
<path fill="#FFFFFF" d="M193.837,4.093h1.732l5.088,7.839l5.067-7.839h1.754l-6.106,9.094v6.368h-1.473v-6.368L193.837,4.093z"/>
<g>
	<line fill="#FFFFFF" x1="94.691" y1="0.128" x2="77.464" y2="23.52"/>
	
		<rect x="85.498" y="-2.702" transform="matrix(0.8045 0.5939 -0.5939 0.8045 23.8481 -48.8118)" fill="#FFFFFF" width="1.159" height="29.05"/>
</g>
</svg>
