<?xml version="1.0" encoding="utf-8"?>
<!-- Generator: Adobe Illustrator 15.0.0, SVG Export Plug-In . SVG Version: 6.00 Build 0)  -->
<!DOCTYPE svg PUBLIC "-//W3C//DTD SVG 1.1//EN" "http://www.w3.org/Graphics/SVG/1.1/DTD/svg11.dtd">
<svg version="1.1" id="Layer_1" xmlns="http://www.w3.org/2000/svg" xmlns:xlink="http://www.w3.org/1999/xlink" x="0px" y="0px"
	 width="247.93px" height="50.799px" viewBox="-29.667 -63 247.93 50.799" enable-background="new -29.667 -63 247.93 50.799"
	 xml:space="preserve">
<path fill="#FFFFFF" d="M-6.491-39.233c0.874-0.417,1.533-0.956,1.98-1.611c0.445-0.656,0.668-1.476,0.668-2.459
	c0-0.911-0.15-1.675-0.45-2.294c-0.3-0.619-0.724-1.116-1.27-1.488c-0.546-0.374-1.202-0.644-1.966-0.807
	c-0.766-0.164-1.611-0.245-2.54-0.245h-9.177v19.501h9.451c0.873,0,1.723-0.111,2.552-0.328c0.83-0.219,1.565-0.557,2.212-1.01
	c0.646-0.456,1.16-1.044,1.544-1.763c0.381-0.717,0.573-1.57,0.573-2.555c0-1.219-0.297-2.263-0.888-3.126
	C-4.394-38.28-5.291-38.888-6.491-39.233z M-14.958-44.805h4.014c0.383,0,0.751,0.032,1.106,0.096
	c0.354,0.063,0.669,0.178,0.942,0.341c0.273,0.164,0.491,0.393,0.655,0.683c0.165,0.291,0.247,0.665,0.247,1.118
	c0,0.821-0.247,1.411-0.737,1.778c-0.491,0.362-1.12,0.544-1.884,0.544h-4.342V-44.805z M-7.463-33.281
	c-0.171,0.33-0.404,0.588-0.695,0.781c-0.291,0.19-0.627,0.325-1.01,0.41c-0.382,0.08-0.784,0.121-1.202,0.121h-4.587v-5.354h4.669
	c0.929,0,1.676,0.217,2.239,0.645c0.565,0.428,0.848,1.142,0.848,2.142C-7.202-34.023-7.289-33.608-7.463-33.281z"/>
<path fill="#FFFFFF" d="M10.053-36.01c0,1.457-0.292,2.526-0.873,3.212c-0.584,0.681-1.64,1.021-3.169,1.021
	c-0.874,0-1.571-0.121-2.09-0.366c-0.518-0.248-0.925-0.567-1.215-0.957c-0.292-0.389-0.482-0.843-0.573-1.353
	c-0.092-0.51-0.137-1.026-0.137-1.557v-12.126h-4.288v12.126c0,2.66,0.725,4.627,2.171,5.9c1.448,1.279,3.492,1.91,6.132,1.91
	c2.603,0,4.643-0.639,6.118-1.925c1.475-1.284,2.213-3.243,2.213-5.885v-12.126h-4.289V-36.01z"/>
<rect x="15.837" y="-48.136" fill="#FFFFFF" width="4.289" height="19.501"/>
<polygon fill="#FFFFFF" points="25.99,-48.136 21.702,-48.136 21.702,-28.635 35.496,-28.635 35.496,-32.239 25.99,-32.239 "/>
<path fill="#FFFFFF" d="M71.195-33.799c0-0.799-0.134-1.485-0.396-2.049c-0.265-0.562-0.628-1.042-1.091-1.433
	c-0.465-0.392-1.003-0.719-1.613-0.982c-0.61-0.265-1.261-0.486-1.952-0.671l-4.752-1.174c-0.402-0.09-0.78-0.208-1.136-0.353
	c-0.354-0.146-0.668-0.338-0.941-0.574c-0.274-0.235-0.488-0.525-0.642-0.86c-0.154-0.338-0.232-0.733-0.232-1.188
	c0-0.005,0-0.009,0-0.013l2.609-3.541c0.139-0.045,0.285-0.085,0.437-0.12c0.59-0.137,1.205-0.205,1.842-0.205
	c0.693,0,1.354,0.095,1.98,0.286c0.629,0.19,1.184,0.476,1.667,0.847c0.482,0.373,0.873,0.838,1.173,1.393
	c0.301,0.554,0.469,1.206,0.505,1.952h1.857c0-1.001-0.195-1.879-0.587-2.636c-0.391-0.754-0.915-1.389-1.57-1.898
	c-0.655-0.509-1.42-0.892-2.294-1.146c-0.873-0.255-1.793-0.382-2.758-0.382c-0.306,0-0.593,0.014-0.875,0.035l3.09-4.192
	l-1.177-0.868L54.028-39.57c-0.079-1.177-0.289-2.231-0.633-3.161c-0.447-1.2-1.066-2.201-1.857-3.003
	c-0.792-0.801-1.731-1.401-2.814-1.803c-1.083-0.399-2.253-0.599-3.509-0.599h-8.413v19.501h8.413c0.267,0,0.525-0.013,0.781-0.028
	l-3.386,4.597l1.177,0.866l13.177-17.892c0.244,0.518,0.562,0.955,0.958,1.313c0.401,0.365,0.869,0.656,1.406,0.875
	c0.537,0.217,1.086,0.401,1.653,0.546l4.342,1.064c0.456,0.111,0.919,0.253,1.393,0.423c0.474,0.173,0.905,0.399,1.298,0.67
	c0.39,0.273,0.71,0.611,0.955,1.008c0.247,0.405,0.371,0.876,0.371,1.423c0,0.711-0.174,1.317-0.522,1.814
	c-0.346,0.503-0.777,0.913-1.297,1.23c-0.518,0.319-1.078,0.551-1.679,0.696c-0.601,0.147-1.157,0.219-1.665,0.219
	c-0.893,0-1.731-0.088-2.514-0.258c-0.783-0.173-1.461-0.461-2.035-0.861c-0.574-0.399-1.023-0.936-1.352-1.613
	c-0.328-0.673-0.482-1.508-0.463-2.514h-1.857c-0.056,1.204,0.103,2.232,0.477,3.091c0.372,0.854,0.906,1.555,1.598,2.101
	c0.691,0.546,1.53,0.951,2.513,1.216c0.983,0.263,2.049,0.397,3.196,0.397s2.129-0.106,2.949-0.315
	c0.819-0.211,1.507-0.482,2.062-0.819c0.555-0.338,0.992-0.714,1.31-1.134c0.32-0.417,0.564-0.833,0.738-1.243
	c0.173-0.412,0.283-0.796,0.327-1.16C71.172-33.288,71.195-33.579,71.195-33.799z M44.914-32.239h-3.823v-12.292h3.059
	c1.056,0,1.944,0.15,2.664,0.45c0.718,0.301,1.296,0.733,1.733,1.298c0.438,0.564,0.752,1.243,0.944,2.035
	c0.191,0.792,0.286,1.679,0.286,2.664c0,1.075-0.136,1.984-0.41,2.732c-0.272,0.748-0.637,1.354-1.091,1.815
	c-0.456,0.464-0.974,0.799-1.558,0.995C46.135-32.342,45.532-32.239,44.914-32.239z"/>
<path fill="#FFFFFF" d="M78.756-48.136l-7.837,19.501h1.965l2.35-6.06h8.877l2.377,6.06h1.99l-7.646-19.501H78.756z M75.806-36.283
	l3.908-9.996l3.765,9.996H75.806z"/>
<polygon fill="#FFFFFF" points="103.354,-31.641 103.3,-31.641 91.937,-48.136 89.862,-48.136 89.862,-28.635 91.719,-28.635 
	91.719,-45.132 91.772,-45.132 103.135,-28.635 105.213,-28.635 105.213,-48.136 103.354,-48.136 "/>
<path fill="#FFFFFF" d="M121.558-33.621c-0.327,0.755-0.755,1.417-1.28,1.979c-0.528,0.567-1.157,1.013-1.885,1.34
	c-0.731,0.328-1.549,0.49-2.459,0.49c-1.294,0-2.405-0.248-3.334-0.737c-0.931-0.492-1.69-1.142-2.278-1.951
	c-0.596-0.81-1.031-1.732-1.312-2.761c-0.283-1.026-0.425-2.067-0.425-3.128c0-1.072,0.142-2.119,0.425-3.139
	c0.281-1.02,0.717-1.935,1.312-2.745c0.588-0.811,1.348-1.462,2.278-1.953c0.929-0.492,2.04-0.738,3.334-0.738
	c0.706,0,1.39,0.105,2.034,0.313c0.646,0.21,1.237,0.515,1.775,0.915c0.536,0.401,0.992,0.896,1.364,1.49
	c0.373,0.592,0.642,1.261,0.807,2.006h1.855c-0.126-1.019-0.431-1.92-0.912-2.704c-0.484-0.783-1.085-1.442-1.805-1.979
	c-0.719-0.537-1.519-0.944-2.402-1.216c-0.882-0.274-1.789-0.41-2.717-0.41c-1.531,0-2.872,0.277-4.029,0.833
	c-1.157,0.555-2.116,1.302-2.882,2.24c-0.766,0.937-1.341,2.017-1.723,3.236c-0.382,1.218-0.572,2.504-0.572,3.85
	c0,1.349,0.19,2.635,0.572,3.852c0.382,1.219,0.957,2.297,1.723,3.222c0.766,0.928,1.725,1.673,2.882,2.227
	c1.157,0.557,2.498,0.835,4.029,0.835c1.147,0,2.188-0.183,3.127-0.547c0.938-0.366,1.75-0.884,2.443-1.56
	c0.693-0.67,1.258-1.49,1.693-2.457c0.438-0.964,0.72-2.049,0.846-3.25h-1.855C122.095-35.193,121.886-34.376,121.558-33.621z"/>
<polygon fill="#FFFFFF" points="123.714,-46.553 130.485,-46.553 130.485,-28.635 132.346,-28.635 132.346,-46.553 139.146,-46.553 
	139.146,-48.136 123.714,-48.136 "/>
<path fill="#FFFFFF" d="M154.085-36.065c0,1.129-0.127,2.091-0.379,2.882c-0.258,0.792-0.632,1.436-1.124,1.938
	c-0.492,0.503-1.091,0.866-1.8,1.093c-0.711,0.227-1.521,0.34-2.433,0.34c-0.893,0-1.694-0.114-2.402-0.34
	c-0.712-0.227-1.312-0.59-1.805-1.093c-0.49-0.502-0.863-1.147-1.119-1.938c-0.255-0.791-0.381-1.752-0.381-2.882v-12.072h-1.856
	v12.482c0,1,0.14,1.954,0.423,2.856c0.281,0.9,0.727,1.686,1.338,2.361s1.395,1.204,2.349,1.598
	c0.956,0.389,2.105,0.588,3.454,0.588c1.366,0,2.525-0.199,3.482-0.588c0.956-0.395,1.739-0.923,2.348-1.598
	c0.611-0.675,1.058-1.461,1.341-2.361c0.281-0.902,0.423-1.856,0.423-2.856v-12.482h-1.858V-36.065z"/>
<path fill="#FFFFFF" d="M163.931-48.136l-7.836,19.501h1.964l2.349-6.06h8.877l2.377,6.06h1.992l-7.646-19.501H163.931z
	 M160.98-36.283l3.907-9.996l3.769,9.996H160.98z"/>
<path fill="#FFFFFF" d="M190.072-30.997c-0.057-0.482-0.096-0.961-0.111-1.436c-0.021-0.472-0.038-0.874-0.057-1.201
	c-0.036-0.583-0.11-1.124-0.231-1.626c-0.119-0.5-0.308-0.941-0.572-1.323c-0.264-0.384-0.606-0.698-1.026-0.946
	c-0.418-0.245-0.946-0.413-1.583-0.503v-0.054c1.256-0.255,2.204-0.84,2.841-1.75c0.637-0.909,0.956-1.982,0.956-3.222
	c0-0.874-0.159-1.634-0.479-2.28c-0.316-0.646-0.747-1.175-1.286-1.583c-0.53-0.41-1.162-0.714-1.882-0.917
	c-0.719-0.199-1.477-0.299-2.281-0.299h-8.929v19.501h1.855v-8.659h7.048c0.874-0.033,1.56,0.111,2.062,0.438
	c0.5,0.327,0.881,0.758,1.145,1.296c0.266,0.536,0.438,1.147,0.521,1.83c0.08,0.683,0.139,1.372,0.178,2.062
	c0.021,0.198,0.036,0.436,0.057,0.711c0.016,0.273,0.039,0.549,0.064,0.83c0.031,0.283,0.075,0.557,0.14,0.819
	c0.062,0.266,0.149,0.49,0.26,0.67h2.047c-0.198-0.237-0.358-0.572-0.477-0.995C190.211-30.064,190.123-30.515,190.072-30.997z
	 M185.834-39.138c-0.508,0.174-1.046,0.258-1.608,0.258h-6.939v-7.673h6.939c1.421,0,2.475,0.347,3.168,1.038
	c0.691,0.691,1.036,1.639,1.036,2.84c0,0.602-0.113,1.134-0.343,1.598c-0.227,0.466-0.53,0.861-0.912,1.189
	C186.791-39.561,186.347-39.312,185.834-39.138z"/>
<polygon fill="#FFFFFF" points="204.978,-48.136 198.586,-38.25 192.17,-48.136 189.981,-48.136 197.633,-36.665 197.633,-28.635 
	199.488,-28.635 199.488,-36.665 207.19,-48.136 "/>
<g>
	<polygon fill="#FFFFFF" points="37.234,-24.234 -23.663,-24.234 -23.663,-52.552 65.386,-52.552 66.523,-54.093 -25.205,-54.093 
		-25.205,-22.693 36.097,-22.693 	"/>
	<polygon fill="#FFFFFF" points="72.011,-54.093 70.875,-52.552 211.557,-52.552 211.557,-24.234 42.724,-24.234 41.588,-22.693 
		213.098,-22.693 213.098,-54.093 	"/>
</g>
</svg>
