<?xml version="1.0" encoding="utf-8"?>
<!-- Generator: Adobe Illustrator 15.0.0, SVG Export Plug-In . SVG Version: 6.00 Build 0)  -->
<!DOCTYPE svg PUBLIC "-//W3C//DTD SVG 1.1//EN" "http://www.w3.org/Graphics/SVG/1.1/DTD/svg11.dtd">
<svg version="1.1" id="Layer_1" xmlns="http://www.w3.org/2000/svg" xmlns:xlink="http://www.w3.org/1999/xlink" x="0px" y="0px"
	 width="185.764px" height="24.598px" viewBox="0 0 185.764 24.598" enable-background="new 0 0 185.764 24.598"
	 xml:space="preserve">
<path fill="#FFFFFF" d="M12.979,11.568c0.692-0.332,1.215-0.757,1.569-1.277c0.353-0.52,0.53-1.169,0.53-1.948
	c0-0.722-0.119-1.327-0.357-1.818c-0.238-0.49-0.574-0.884-1.006-1.179c-0.433-0.296-0.953-0.509-1.558-0.639
	c-0.606-0.129-1.277-0.194-2.013-0.194H2.873v15.451h7.488c0.692,0,1.366-0.087,2.023-0.26c0.656-0.173,1.24-0.439,1.752-0.8
	s0.919-0.826,1.224-1.396c0.303-0.568,0.454-1.245,0.454-2.024c0-0.967-0.235-1.792-0.704-2.478
	C14.641,12.323,13.931,11.841,12.979,11.568z M6.271,7.153h3.181c0.303,0,0.595,0.025,0.877,0.076
	c0.281,0.051,0.53,0.141,0.747,0.271c0.216,0.13,0.389,0.311,0.519,0.541c0.129,0.23,0.195,0.526,0.195,0.887
	c0,0.649-0.195,1.118-0.584,1.407c-0.39,0.289-0.888,0.432-1.494,0.432h-3.44V7.153z M12.21,16.284
	c-0.136,0.262-0.321,0.466-0.551,0.62c-0.231,0.15-0.498,0.258-0.801,0.323c-0.303,0.063-0.621,0.096-0.952,0.096H6.271v-4.241h3.7
	c0.736,0,1.328,0.171,1.774,0.51c0.448,0.34,0.671,0.905,0.671,1.698C12.416,15.695,12.347,16.024,12.21,16.284z"/>
<path fill="#FFFFFF" d="M26.089,14.123c0,1.153-0.231,2-0.693,2.543c-0.462,0.541-1.298,0.809-2.51,0.809
	c-0.693,0-1.245-0.096-1.656-0.289c-0.411-0.196-0.732-0.449-0.963-0.758c-0.231-0.309-0.382-0.668-0.454-1.072
	c-0.073-0.404-0.108-0.813-0.108-1.232V4.513h-3.398v9.609c0,2.105,0.574,3.664,1.72,4.674c1.147,1.012,2.767,1.514,4.859,1.514
	c2.062,0,3.678-0.507,4.847-1.525c1.169-1.018,1.753-2.57,1.753-4.662V4.513h-3.397V14.123z"/>
<rect x="30.671" y="4.513" fill="#FFFFFF" width="3.397" height="15.451"/>
<polygon fill="#FFFFFF" points="38.717,4.513 35.319,4.513 35.319,19.965 46.248,19.965 46.248,17.108 38.717,17.108 "/>
<path fill="#FFFFFF" d="M74.534,15.875c0-0.634-0.105-1.177-0.313-1.624c-0.21-0.446-0.498-0.825-0.865-1.137
	c-0.368-0.31-0.794-0.569-1.277-0.777c-0.484-0.21-1-0.386-1.547-0.531l-3.765-0.931c-0.318-0.072-0.618-0.165-0.899-0.281
	c-0.281-0.115-0.53-0.267-0.746-0.454c-0.217-0.188-0.387-0.416-0.509-0.682c-0.123-0.267-0.184-0.581-0.184-0.942
	c0-0.003,0-0.006,0-0.01l2.067-2.805c0.111-0.036,0.227-0.068,0.346-0.095c0.467-0.108,0.955-0.162,1.46-0.162
	c0.549,0,1.072,0.075,1.569,0.227c0.498,0.151,0.938,0.376,1.321,0.671c0.381,0.296,0.692,0.664,0.93,1.104
	c0.238,0.439,0.372,0.956,0.401,1.547h1.471c0-0.793-0.155-1.49-0.465-2.088c-0.31-0.599-0.725-1.1-1.244-1.504
	c-0.519-0.404-1.125-0.707-1.817-0.909s-1.421-0.303-2.186-0.303c-0.242,0-0.47,0.011-0.692,0.027l2.448-3.322l-0.932-0.687
	l-8.171,11.095c-0.062-0.933-0.229-1.769-0.502-2.504c-0.354-0.952-0.844-1.745-1.471-2.381c-0.628-0.634-1.372-1.11-2.229-1.429
	c-0.858-0.316-1.786-0.475-2.78-0.475h-6.666v15.451h6.666c0.211,0,0.417-0.01,0.619-0.021l-2.683,3.641l0.932,0.688l10.441-14.177
	c0.194,0.41,0.446,0.756,0.759,1.041c0.318,0.289,0.688,0.519,1.114,0.692c0.425,0.172,0.861,0.317,1.31,0.433l3.44,0.843
	c0.361,0.088,0.729,0.2,1.104,0.335c0.375,0.138,0.717,0.316,1.028,0.531c0.309,0.216,0.562,0.484,0.757,0.8
	c0.195,0.318,0.293,0.692,0.293,1.126c0,0.563-0.138,1.044-0.413,1.438c-0.274,0.398-0.616,0.723-1.027,0.973
	c-0.411,0.254-0.854,0.438-1.331,0.553c-0.476,0.117-0.917,0.174-1.319,0.174c-0.708,0-1.372-0.068-1.992-0.204
	c-0.621-0.138-1.158-0.365-1.612-0.683c-0.455-0.316-0.811-0.742-1.071-1.278c-0.26-0.533-0.382-1.195-0.367-1.991h-1.472
	c-0.043,0.953,0.082,1.769,0.378,2.447c0.295,0.677,0.718,1.233,1.266,1.666c0.548,0.433,1.212,0.754,1.991,0.964
	c0.78,0.209,1.624,0.314,2.533,0.314c0.909,0,1.687-0.085,2.337-0.251c0.648-0.166,1.194-0.381,1.634-0.648
	c0.439-0.267,0.787-0.565,1.038-0.898c0.253-0.331,0.448-0.659,0.585-0.984c0.136-0.325,0.223-0.632,0.259-0.92
	C74.516,16.279,74.534,16.049,74.534,15.875z M53.711,17.108h-3.03V7.369h2.424c0.836,0,1.54,0.119,2.11,0.357
	c0.569,0.238,1.027,0.581,1.374,1.028c0.347,0.447,0.595,0.985,0.748,1.612c0.151,0.627,0.227,1.331,0.227,2.111
	c0,0.852-0.108,1.572-0.325,2.165c-0.216,0.592-0.505,1.071-0.865,1.438c-0.361,0.367-0.772,0.632-1.234,0.788
	C54.677,17.028,54.201,17.108,53.711,17.108z"/>
<path fill="#FFFFFF" d="M80.525,4.513l-6.21,15.451h1.558l1.861-4.803h7.034l1.883,4.803h1.578L82.171,4.513H80.525z M78.188,13.905
	l3.096-7.921l2.984,7.921H78.188z"/>
<polygon fill="#FFFFFF" points="100.015,17.583 99.972,17.583 90.969,4.513 89.325,4.513 89.325,19.965 90.797,19.965 90.797,6.894 
	90.84,6.894 99.843,19.965 101.487,19.965 101.487,4.513 100.015,4.513 "/>
<path fill="#FFFFFF" d="M114.439,16.015c-0.26,0.599-0.599,1.123-1.015,1.567c-0.419,0.449-0.918,0.803-1.495,1.062
	c-0.578,0.26-1.227,0.389-1.947,0.389c-1.025,0-1.906-0.195-2.642-0.583c-0.735-0.391-1.338-0.905-1.806-1.547
	c-0.47-0.643-0.815-1.373-1.039-2.188c-0.225-0.813-0.336-1.64-0.336-2.478c0-0.851,0.111-1.681,0.336-2.489
	c0.224-0.808,0.569-1.533,1.039-2.175c0.468-0.642,1.07-1.159,1.806-1.547c0.735-0.39,1.616-0.584,2.642-0.584
	c0.562,0,1.101,0.083,1.611,0.248c0.512,0.167,0.981,0.408,1.407,0.725c0.426,0.318,0.786,0.711,1.082,1.18
	c0.294,0.469,0.508,0.999,0.639,1.59h1.471c-0.101-0.808-0.342-1.521-0.724-2.143c-0.384-0.62-0.859-1.143-1.43-1.568
	s-1.204-0.747-1.904-0.963c-0.699-0.217-1.417-0.325-2.152-0.325c-1.213,0-2.276,0.22-3.192,0.66
	c-0.917,0.44-1.678,1.032-2.283,1.775c-0.606,0.743-1.062,1.598-1.364,2.564c-0.302,0.966-0.453,1.984-0.453,3.052
	c0,1.067,0.151,2.085,0.453,3.051c0.303,0.967,0.758,1.818,1.364,2.553c0.605,0.736,1.366,1.324,2.283,1.765
	c0.916,0.441,1.979,0.662,3.192,0.662c0.909,0,1.733-0.146,2.478-0.434c0.743-0.29,1.387-0.699,1.938-1.235
	c0.547-0.531,0.995-1.181,1.342-1.946c0.347-0.765,0.568-1.624,0.67-2.575h-1.472C114.865,14.77,114.699,15.417,114.439,16.015z"/>
<polygon fill="#FFFFFF" points="116.147,5.768 121.512,5.768 121.512,19.965 122.986,19.965 122.986,5.768 128.374,5.768 
	128.374,4.513 116.147,4.513 "/>
<path fill="#FFFFFF" d="M140.211,14.079c0,0.895-0.102,1.656-0.302,2.283c-0.203,0.627-0.499,1.139-0.888,1.536
	c-0.391,0.398-0.865,0.686-1.428,0.866c-0.563,0.18-1.205,0.27-1.927,0.27c-0.707,0-1.343-0.09-1.905-0.27
	c-0.562-0.181-1.038-0.468-1.428-0.866c-0.39-0.397-0.686-0.909-0.887-1.536c-0.203-0.627-0.304-1.389-0.304-2.283V4.513h-1.471
	v9.89c0,0.793,0.112,1.547,0.335,2.263c0.224,0.713,0.577,1.336,1.061,1.871c0.484,0.534,1.104,0.955,1.86,1.267
	c0.758,0.309,1.67,0.466,2.738,0.466c1.082,0,2.002-0.157,2.76-0.466c0.756-0.312,1.377-0.732,1.86-1.267
	c0.483-0.535,0.838-1.158,1.061-1.871c0.223-0.716,0.336-1.47,0.336-2.263v-9.89h-1.473V14.079z"/>
<path fill="#FFFFFF" d="M148.013,4.513l-6.21,15.451h1.557l1.86-4.803h7.034l1.883,4.803h1.58l-6.06-15.451H148.013z
	 M145.675,13.905l3.096-7.921l2.986,7.921H145.675z"/>
<path fill="#FFFFFF" d="M168.723,18.094c-0.043-0.382-0.073-0.761-0.086-1.138c-0.016-0.374-0.031-0.692-0.045-0.952
	c-0.028-0.461-0.089-0.889-0.184-1.287c-0.094-0.397-0.244-0.746-0.454-1.05c-0.209-0.303-0.479-0.553-0.812-0.747
	c-0.331-0.195-0.75-0.328-1.255-0.401v-0.041c0.995-0.203,1.746-0.666,2.251-1.386s0.757-1.572,0.757-2.554
	c0-0.692-0.125-1.295-0.378-1.807c-0.252-0.512-0.592-0.931-1.019-1.255c-0.423-0.325-0.922-0.566-1.492-0.726
	c-0.569-0.158-1.171-0.237-1.807-0.237h-7.076v15.451h1.471v-6.86h5.584c0.692-0.027,1.236,0.088,1.634,0.347
	c0.396,0.26,0.698,0.602,0.908,1.027c0.209,0.426,0.347,0.91,0.412,1.45c0.063,0.541,0.11,1.086,0.141,1.634
	c0.016,0.159,0.028,0.346,0.043,0.563s0.032,0.436,0.054,0.659c0.022,0.225,0.059,0.44,0.108,0.648
	c0.051,0.211,0.119,0.388,0.206,0.531h1.623c-0.158-0.188-0.285-0.452-0.378-0.788C168.835,18.834,168.766,18.476,168.723,18.094z
	 M165.368,11.644c-0.403,0.137-0.829,0.205-1.275,0.205h-5.498V5.768h5.498c1.125,0,1.961,0.274,2.51,0.823
	c0.548,0.548,0.822,1.298,0.822,2.25c0,0.477-0.09,0.899-0.271,1.266c-0.181,0.369-0.421,0.682-0.724,0.942
	C166.126,11.308,165.772,11.507,165.368,11.644z"/>
<polygon fill="#FFFFFF" points="180.536,4.513 175.471,12.346 170.387,4.513 168.655,4.513 174.715,13.603 174.715,19.965 
	176.187,19.965 176.187,13.603 182.289,4.513 "/>
</svg>
