<?xml version="1.0" encoding="utf-8"?>
<!-- Generator: Adobe Illustrator 15.0.0, SVG Export Plug-In . SVG Version: 6.00 Build 0)  -->
<!DOCTYPE svg PUBLIC "-//W3C//DTD SVG 1.1//EN" "http://www.w3.org/Graphics/SVG/1.1/DTD/svg11.dtd">
<svg version="1.1" id="Layer_1" xmlns="http://www.w3.org/2000/svg" xmlns:xlink="http://www.w3.org/1999/xlink" x="0px" y="0px"
	 width="155.527px" height="24.597px" viewBox="0 0 155.527 24.597" enable-background="new 0 0 155.527 24.597"
	 xml:space="preserve">
<path fill="#FFFFFF" d="M21.476,10.927c0.501-0.748,0.821-1.511,0.961-2.293c0.14-0.78,0.099-1.553-0.123-2.317
	c-0.222-0.764-0.629-1.441-1.221-2.033c-0.592-0.592-1.369-1.072-2.329-1.442c-0.962-0.371-2.108-0.555-3.44-0.555
	c-1.661,0-3.115,0.221-4.364,0.666C9.711,3.396,8.696,3.954,7.916,4.628S6.604,6.029,6.326,6.81c-0.28,0.78-0.271,1.516,0.025,2.206
	c0.181,0.444,0.426,0.797,0.739,1.06c0.312,0.263,0.646,0.452,0.999,0.567c0.353,0.115,0.719,0.172,1.097,0.172
	c0.379,0,0.731-0.04,1.061-0.123c-0.33,0.592-0.658,1.192-0.986,1.8c-0.33,0.608-0.639,1.175-0.925,1.701
	c-0.288,0.526-0.551,0.999-0.788,1.417c-0.239,0.419-0.416,0.737-0.531,0.95c-0.428,0.805-0.663,1.388-0.702,1.75
	c-0.042,0.362,0.192,0.543,0.702,0.543c0.509,0,0.944-0.098,1.307-0.296c0.361-0.197,0.69-0.469,0.986-0.814
	c0.132-0.131,0.406-0.505,0.826-1.122c0.419-0.616,0.899-1.343,1.442-2.182c0.377,0.082,0.813,0.124,1.306,0.124
	c1.627,0,3.058-0.213,4.29-0.641c0,0.098-0.008,0.201-0.024,0.308c-0.017,0.108-0.033,0.218-0.049,0.333
	c-0.116,0.625-0.366,1.282-0.752,1.972s-0.921,1.319-1.602,1.886c-0.682,0.567-1.517,1.027-2.503,1.38s-2.128,0.49-3.427,0.407
	c-1.183-0.066-2.125-0.374-2.823-0.924c-0.699-0.551-1.155-1.2-1.368-1.947C4.41,16.589,4.439,15.82,4.71,15.032
	c0.271-0.79,0.786-1.446,1.541-1.972c0.444-0.312,0.637-0.567,0.58-0.765s-0.268-0.316-0.629-0.357
	c-0.361-0.041-0.822,0.008-1.38,0.147c-0.559,0.14-1.101,0.383-1.627,0.728c-0.526,0.345-0.99,0.805-1.393,1.38
	c-0.402,0.576-0.637,1.291-0.702,2.145c-0.066,0.854,0.131,1.66,0.592,2.417c0.459,0.755,1.092,1.417,1.898,1.984
	c0.805,0.567,1.754,1.011,2.848,1.332c1.092,0.321,2.247,0.477,3.464,0.468c1.215-0.008,2.448-0.209,3.697-0.604
	c1.249-0.394,2.441-1.019,3.574-1.874c0.625-0.476,1.143-1.01,1.554-1.602c0.411-0.592,0.71-1.204,0.9-1.837
	c0.189-0.632,0.267-1.27,0.234-1.911c-0.033-0.641-0.181-1.249-0.443-1.824C20.287,12.328,20.974,11.675,21.476,10.927z
	 M14.856,12.666c-0.526,0.165-1.084,0.263-1.677,0.295c-0.131,0.017-0.251,0.025-0.357,0.025c-0.107,0-0.209,0-0.308,0
	c0.181-0.296,0.361-0.588,0.542-0.875c0.181-0.288,0.361-0.58,0.542-0.876c0.131,0.018,0.267,0.029,0.406,0.037
	c0.14,0.008,0.284,0.029,0.433,0.062c0.805,0.148,1.429,0.37,1.873,0.666C15.867,12.279,15.381,12.501,14.856,12.666z M19.158,8.547
	c-0.271,0.855-0.744,1.627-1.417,2.317c-0.396-0.278-0.851-0.52-1.368-0.726c-0.518-0.206-1.09-0.349-1.714-0.433H14.56l1.233-2.071
	c0.345-0.624,0.521-1.097,0.53-1.417c0.009-0.321-0.083-0.551-0.271-0.69c-0.189-0.14-0.427-0.213-0.714-0.222
	c-0.288-0.008-0.555-0.013-0.802-0.013c-0.23,0-0.435-0.004-0.617-0.012c-0.181-0.007-0.349,0.012-0.504,0.062
	c-0.157,0.05-0.305,0.156-0.445,0.321c-0.139,0.165-0.292,0.419-0.455,0.764c-0.132,0.247-0.317,0.608-0.555,1.084
	c-0.239,0.478-0.522,1.011-0.851,1.603C10.682,9,10.327,8.794,10.048,8.499C9.769,8.203,9.592,7.87,9.519,7.5
	C9.444,7.13,9.481,6.74,9.629,6.329c0.148-0.412,0.431-0.793,0.85-1.146c0.419-0.353,0.99-0.654,1.713-0.9
	c0.724-0.247,1.619-0.403,2.688-0.468c1.298-0.066,2.301,0.131,3.007,0.592c0.706,0.46,1.163,1.051,1.369,1.775
	C19.462,6.904,19.429,7.693,19.158,8.547z"/>
<path fill="#FFFFFF" d="M35.931,8.153c0.254,0.099,0.538,0.136,0.85,0.112c0.312-0.025,0.628-0.107,0.95-0.247
	c0.32-0.139,0.6-0.321,0.837-0.543c0.239-0.221,0.408-0.468,0.506-0.739c0.098-0.271,0.09-0.546-0.025-0.826
	c-0.132-0.28-0.325-0.473-0.579-0.58c-0.255-0.106-0.535-0.144-0.839-0.11c-0.304,0.034-0.612,0.128-0.924,0.283
	c-0.312,0.156-0.584,0.345-0.813,0.567c-0.231,0.222-0.399,0.468-0.505,0.74c-0.107,0.271-0.104,0.539,0.012,0.8
	C35.5,7.874,35.675,8.055,35.931,8.153z"/>
<path fill="#FFFFFF" d="M154.022,13.281c-0.123-0.049-0.28-0.028-0.469,0.061c-0.189,0.092-0.366,0.243-0.53,0.457
	c-0.707,0.888-1.466,1.611-2.28,2.17c-0.813,0.559-1.664,1.01-2.552,1.355c0.23-0.476,0.456-0.94,0.678-1.393
	c0.222-0.452,0.464-0.875,0.727-1.269c0.148-0.247,0.321-0.534,0.518-0.863c0.198-0.329,0.396-0.669,0.591-1.023
	c0.198-0.353,0.395-0.706,0.592-1.06c0.198-0.354,0.378-0.687,0.542-0.999c0.163-0.296,0.238-0.522,0.222-0.678
	c-0.017-0.155-0.09-0.263-0.222-0.32c-0.132-0.058-0.312-0.078-0.542-0.062c-0.23,0.017-0.477,0.041-0.74,0.074
	c-0.279,0.049-0.505,0.095-0.678,0.136s-0.329,0.111-0.469,0.209c-0.14,0.099-0.271,0.239-0.394,0.419
	c-0.124,0.18-0.259,0.427-0.407,0.739c-0.181,0.345-0.354,0.694-0.518,1.048c-0.165,0.354-0.346,0.743-0.543,1.171
	c-0.229,0.411-0.455,0.81-0.677,1.196c-0.223,0.386-0.453,0.727-0.692,1.023c-0.237,0.296-0.484,0.534-0.739,0.715
	c-0.255,0.181-0.539,0.271-0.851,0.271c-0.196,0-0.341-0.083-0.431-0.247s-0.061-0.465,0.086-0.9
	c0.149-0.436,0.445-1.039,0.888-1.811c0.443-0.772,1.101-1.767,1.973-2.984c0.197-0.279,0.308-0.493,0.333-0.641
	c0.024-0.147-0.021-0.254-0.135-0.32c-0.115-0.066-0.28-0.095-0.494-0.086c-0.213,0.008-0.453,0.028-0.715,0.061
	c-0.278,0.049-0.513,0.098-0.702,0.147c-0.19,0.05-0.363,0.129-0.518,0.235c-0.157,0.107-0.313,0.25-0.468,0.431
	c-0.157,0.18-0.333,0.411-0.53,0.69c-0.428,0.592-0.85,1.286-1.27,2.083c-0.092,0.176-0.169,0.367-0.254,0.548
	c-0.238,0.386-0.513,0.75-0.831,1.091c-0.336,0.362-0.693,0.682-1.072,0.962c-0.378,0.279-0.752,0.501-1.122,0.665
	c-0.37,0.165-0.711,0.247-1.023,0.247c-0.213,0-0.337-0.062-0.37-0.185c-0.034-0.123-0.012-0.288,0.062-0.494
	c0.073-0.206,0.176-0.439,0.308-0.703c0.131-0.263,0.263-0.526,0.394-0.789c0.083-0.164,0.222-0.436,0.42-0.814
	c0.197-0.378,0.41-0.772,0.64-1.183c0.23-0.412,0.448-0.806,0.653-1.184c0.206-0.378,0.358-0.649,0.457-0.813
	c0-0.017,0.008-0.034,0.024-0.049c0.148-0.263,0.193-0.525,0.136-0.79c-0.058-0.263-0.165-0.48-0.321-0.653
	c-0.157-0.172-0.337-0.275-0.543-0.308c-0.206-0.033-0.381,0.049-0.529,0.247c-0.131,0.197-0.271,0.382-0.42,0.555
	c-0.147,0.172-0.32,0.316-0.518,0.432c-0.196,0.114-0.423,0.184-0.678,0.21c-0.254,0.023-0.555-0.014-0.9-0.112
	c0.082-0.229,0.172-0.46,0.272-0.69c0.098-0.23,0.167-0.448,0.209-0.653c0.041-0.206,0.044-0.391,0.012-0.555
	c-0.033-0.164-0.148-0.288-0.345-0.37c-0.264-0.115-0.547-0.12-0.851-0.012c-0.303,0.106-0.595,0.292-0.875,0.555
	c-0.279,0.263-0.53,0.575-0.751,0.937c-0.222,0.361-0.382,0.735-0.48,1.122c-0.099,0.386-0.127,0.76-0.086,1.122
	c0.041,0.362,0.192,0.674,0.456,0.937c-0.115,0.214-0.234,0.423-0.357,0.629c-0.124,0.206-0.251,0.398-0.382,0.579
	c-0.247,0.411-0.539,0.797-0.875,1.159c-0.337,0.362-0.695,0.682-1.072,0.962c-0.378,0.279-0.756,0.501-1.135,0.665
	c-0.378,0.165-0.714,0.247-1.01,0.247c-0.214,0-0.337-0.065-0.37-0.198c-0.033-0.131-0.017-0.299,0.049-0.505
	c0.065-0.205,0.164-0.435,0.295-0.69c0.132-0.253,0.271-0.513,0.419-0.776c0.147-0.247,0.316-0.534,0.506-0.863
	c0.188-0.329,0.384-0.669,0.59-1.023c0.206-0.353,0.411-0.706,0.617-1.06c0.206-0.354,0.39-0.687,0.555-0.999
	c0.164-0.296,0.238-0.522,0.222-0.678c-0.016-0.155-0.09-0.263-0.222-0.32c-0.131-0.058-0.313-0.078-0.543-0.062
	c-0.229,0.017-0.476,0.041-0.739,0.074c-0.247,0.049-0.457,0.095-0.629,0.136c-0.173,0.041-0.326,0.104-0.456,0.185
	c-0.133,0.083-0.251,0.193-0.358,0.333c-0.107,0.141-0.226,0.325-0.357,0.555c-0.427-0.427-0.937-0.694-1.529-0.8
	c-0.592-0.107-1.207-0.071-1.848,0.11c-0.641,0.182-1.282,0.498-1.923,0.949c-0.641,0.452-1.217,1.023-1.726,1.713
	c-0.238,0.325-0.434,0.649-0.599,0.971c-0.236,0.379-0.51,0.739-0.831,1.075c-0.346,0.362-0.707,0.682-1.085,0.962
	c-0.378,0.279-0.751,0.501-1.122,0.665c-0.37,0.165-0.711,0.247-1.023,0.247c-0.197,0-0.317-0.065-0.357-0.198
	c-0.042-0.131-0.025-0.299,0.049-0.505c0.074-0.205,0.177-0.435,0.308-0.69c0.131-0.253,0.271-0.513,0.42-0.776
	c0.147-0.247,0.315-0.534,0.505-0.863c0.188-0.329,0.382-0.669,0.579-1.023c0.197-0.353,0.398-0.706,0.604-1.06
	c0.206-0.354,0.391-0.687,0.555-0.999c0.165-0.296,0.238-0.522,0.221-0.678c-0.016-0.155-0.09-0.263-0.221-0.32
	c-0.131-0.058-0.312-0.078-0.542-0.062c-0.231,0.017-0.478,0.041-0.74,0.074c-0.263,0.049-0.485,0.095-0.666,0.136
	c-0.182,0.041-0.342,0.111-0.481,0.209c-0.14,0.099-0.271,0.239-0.394,0.419c-0.124,0.18-0.259,0.427-0.407,0.739
	c-0.182,0.345-0.354,0.694-0.518,1.048c-0.165,0.354-0.345,0.743-0.542,1.171c-0.247,0.411-0.48,0.81-0.703,1.196
	c-0.223,0.386-0.448,0.727-0.678,1.023c-0.23,0.296-0.472,0.534-0.728,0.715c-0.255,0.181-0.539,0.271-0.851,0.271
	c-0.197,0-0.341-0.083-0.431-0.247s-0.062-0.465,0.086-0.9c0.148-0.436,0.443-1.039,0.888-1.811
	c0.444-0.772,1.101-1.767,1.973-2.984c0.197-0.279,0.304-0.493,0.32-0.641c0.016-0.147-0.029-0.254-0.135-0.32
	c-0.107-0.066-0.268-0.095-0.481-0.086c-0.213,0.008-0.452,0.028-0.715,0.061c-0.28,0.049-0.514,0.098-0.702,0.147
	c-0.189,0.05-0.362,0.129-0.519,0.235c-0.156,0.107-0.312,0.25-0.468,0.431c-0.156,0.18-0.333,0.411-0.53,0.69
	c-0.428,0.592-0.855,1.286-1.282,2.083c-0.084,0.157-0.15,0.328-0.228,0.489c-0.393,0.555-0.798,1.032-1.215,1.434
	c-0.419,0.402-0.822,0.723-1.208,0.961c-0.386,0.239-0.739,0.392-1.06,0.457c-0.32,0.066-0.579,0.033-0.776-0.099
	c-0.148-0.099-0.21-0.341-0.185-0.727c0.024-0.386,0.114-0.843,0.271-1.369c0.156-0.526,0.375-1.097,0.652-1.713
	c0.28-0.617,0.601-1.195,0.962-1.738c0.328-0.494,0.702-1.048,1.122-1.665c0.419-0.616,0.833-1.211,1.245-1.788h3.402
	c0.212,0,0.447-0.065,0.702-0.196c0.255-0.131,0.502-0.296,0.74-0.494c0.239-0.196,0.448-0.402,0.629-0.615
	c0.181-0.214,0.304-0.411,0.37-0.592c0.065-0.181,0.061-0.316-0.013-0.408c-0.073-0.089-0.243-0.111-0.504-0.062
	c-0.345,0.083-0.876,0.168-1.591,0.259c-0.714,0.09-1.491,0.193-2.33,0.308l0.099-0.124c0.362-0.394,0.525-0.656,0.493-0.788
	c-0.033-0.131-0.176-0.185-0.431-0.16s-0.576,0.107-0.962,0.247c-0.386,0.139-0.76,0.284-1.122,0.431
	c-0.427,0.182-0.982,0.378-1.664,0.592c-0.682,0.214-1.335,0.354-1.96,0.419c-0.214,0.016-0.416,0.086-0.604,0.21
	c-0.188,0.123-0.332,0.259-0.431,0.406c-0.099,0.149-0.144,0.28-0.135,0.395c0.007,0.115,0.111,0.172,0.308,0.172h2.293
	c-0.263,0.362-0.505,0.715-0.727,1.061c-0.222,0.345-0.424,0.65-0.604,0.912c-1.068,1.562-1.833,2.93-2.293,4.104
	c-0.025,0.063-0.042,0.12-0.065,0.182c-0.358,0.485-0.775,0.93-1.253,1.335c-0.486,0.41-0.99,0.761-1.516,1.047
	c-0.527,0.288-1.053,0.502-1.578,0.641c-0.527,0.14-1.003,0.168-1.431,0.086c-0.247-0.049-0.477-0.144-0.69-0.283
	c-0.214-0.14-0.382-0.337-0.506-0.592c-0.123-0.255-0.176-0.568-0.16-0.937c0.017-0.37,0.14-0.81,0.37-1.319
	c0.329-0.755,0.706-1.347,1.134-1.775c0.427-0.427,0.813-0.723,1.159-0.887c0.345-0.165,0.612-0.214,0.8-0.149
	c0.19,0.067,0.21,0.214,0.062,0.444c-0.51,0.263-0.854,0.579-1.035,0.95c-0.182,0.37-0.227,0.694-0.135,0.974
	c0.089,0.279,0.295,0.477,0.616,0.591c0.32,0.115,0.727,0.05,1.22-0.197c0.412-0.197,0.728-0.476,0.95-0.838
	c0.222-0.361,0.336-0.735,0.346-1.121c0.008-0.387-0.1-0.755-0.321-1.11c-0.222-0.353-0.579-0.629-1.072-0.826
	c-0.592-0.247-1.191-0.315-1.8-0.209c-0.608,0.107-1.188,0.333-1.738,0.678c-0.551,0.346-1.052,0.772-1.504,1.282
	c-0.451,0.51-0.817,1.043-1.096,1.602c-0.111,0.222-0.205,0.439-0.289,0.654c-0.24,0.387-0.519,0.754-0.846,1.097
	c-0.345,0.362-0.708,0.682-1.084,0.962c-0.379,0.279-0.752,0.501-1.123,0.665c-0.369,0.165-0.711,0.247-1.023,0.247
	c-0.197,0-0.304-0.074-0.321-0.222c-0.017-0.148,0.02-0.337,0.112-0.568c0.089-0.229,0.222-0.48,0.394-0.751
	c0.172-0.271,0.341-0.53,0.505-0.777c0.477-0.707,0.826-1.36,1.048-1.96c0.221-0.6,0.308-1.117,0.259-1.553
	s-0.239-0.776-0.567-1.023c-0.329-0.247-0.805-0.37-1.43-0.37c-0.51,0-1.011,0.14-1.504,0.419c-0.492,0.28-0.978,0.642-1.454,1.084
	c0.247-0.525,0.357-0.896,0.333-1.109c-0.025-0.212-0.251-0.304-0.678-0.271c-0.28,0.033-0.521,0.071-0.728,0.111
	c-0.205,0.042-0.398,0.115-0.579,0.222c-0.181,0.107-0.35,0.25-0.505,0.431c-0.156,0.18-0.309,0.427-0.457,0.739
	c-0.147,0.313-0.303,0.629-0.468,0.949c-0.165,0.321-0.332,0.666-0.505,1.036c-0.107,0.23-0.221,0.478-0.338,0.733
	c-0.225,0.353-0.478,0.689-0.771,1.004c-0.336,0.362-0.695,0.682-1.072,0.962c-0.378,0.279-0.756,0.501-1.134,0.665
	c-0.378,0.165-0.714,0.247-1.01,0.247c-0.213,0-0.337-0.065-0.371-0.198c-0.033-0.131-0.017-0.299,0.049-0.505
	c0.065-0.205,0.165-0.435,0.296-0.69c0.131-0.253,0.271-0.513,0.419-0.776c0.148-0.247,0.316-0.534,0.505-0.863
	c0.188-0.329,0.386-0.669,0.591-1.023c0.205-0.353,0.411-0.706,0.617-1.06c0.206-0.354,0.391-0.687,0.555-0.999
	c0.164-0.296,0.238-0.522,0.222-0.678c-0.016-0.155-0.091-0.263-0.222-0.32c-0.131-0.058-0.312-0.078-0.542-0.062
	s-0.477,0.041-0.74,0.074C81.06,9.78,80.85,9.826,80.677,9.867c-0.172,0.041-0.325,0.104-0.455,0.185
	c-0.132,0.083-0.251,0.193-0.358,0.333c-0.107,0.141-0.225,0.325-0.357,0.555c-0.427-0.427-0.937-0.694-1.528-0.8
	c-0.592-0.107-1.208-0.071-1.849,0.11c-0.641,0.182-1.282,0.498-1.923,0.949c-0.641,0.452-1.217,1.023-1.726,1.713
	c-0.542,0.741-0.896,1.472-1.06,2.195c-0.165,0.723-0.173,1.373-0.025,1.947c0.147,0.577,0.436,1.04,0.862,1.394
	c0.427,0.353,0.962,0.529,1.603,0.529c0.625,0,1.184-0.143,1.676-0.431c0.494-0.288,0.92-0.62,1.282-0.998
	c0.049,0.493,0.263,0.854,0.641,1.084c0.378,0.231,0.839,0.345,1.381,0.345c0.378,0,0.858-0.147,1.442-0.443
	c0.583-0.295,1.171-0.67,1.763-1.123c0.209-0.16,0.41-0.333,0.611-0.504c-0.005,0.015-0.014,0.034-0.02,0.049
	c-0.116,0.329-0.238,0.682-0.37,1.06c-0.132,0.379-0.12,0.632,0.038,0.763c0.156,0.133,0.431,0.198,0.825,0.198h0.617
	c0.164,0,0.299-0.074,0.406-0.221c0.108-0.148,0.243-0.402,0.408-0.765c0.263-0.608,0.612-1.282,1.047-2.021
	c0.435-0.74,0.895-1.438,1.38-2.096c0.485-0.657,0.951-1.208,1.394-1.652c0.443-0.443,0.806-0.673,1.084-0.69
	c0.345-0.016,0.498,0.124,0.456,0.419c-0.041,0.296-0.176,0.665-0.407,1.109c-0.23,0.444-0.502,0.924-0.814,1.441
	c-0.312,0.519-0.567,0.983-0.763,1.394c-0.247,0.542-0.367,1.007-0.359,1.393c0.009,0.386,0.107,0.706,0.296,0.961
	c0.188,0.254,0.447,0.44,0.776,0.555c0.329,0.115,0.69,0.172,1.086,0.172c0.377,0,0.858-0.147,1.441-0.443
	c0.584-0.295,1.172-0.67,1.764-1.123c0.539-0.412,1.047-0.87,1.533-1.364c0.021,0.46,0.111,0.875,0.279,1.242
	c0.238,0.518,0.62,0.928,1.146,1.232c0.525,0.305,1.167,0.456,1.922,0.456c0.675,0,1.348-0.111,2.022-0.333
	c0.674-0.222,1.331-0.534,1.972-0.938c0.641-0.402,1.258-0.891,1.849-1.466c0.018-0.017,0.033-0.037,0.05-0.054
	c-0.015,0.135-0.033,0.274-0.038,0.399c-0.024,0.79,0.141,1.386,0.493,1.788c0.354,0.403,0.818,0.604,1.393,0.604
	c0.542,0,1.101-0.119,1.676-0.357c0.576-0.239,1.138-0.562,1.689-0.974c0.353-0.264,0.692-0.571,1.024-0.899
	c-0.07,0.547-0.04,1.016,0.11,1.391c0.221,0.56,0.718,0.838,1.491,0.838c0.509,0,1.027-0.139,1.554-0.419
	c0.526-0.279,1.036-0.706,1.528-1.282c-0.033,0.592,0.153,1.023,0.555,1.294c0.403,0.272,0.892,0.407,1.468,0.407
	c0.395,0,0.879-0.147,1.455-0.443c0.575-0.295,1.162-0.67,1.763-1.123c0.472-0.355,0.915-0.751,1.342-1.169
	c0.004,0.285,0.034,0.556,0.099,0.812c0.149,0.577,0.437,1.04,0.863,1.394c0.428,0.353,0.962,0.529,1.603,0.529
	c0.625,0,1.184-0.143,1.677-0.431c0.493-0.288,0.919-0.62,1.281-0.998c0.049,0.493,0.263,0.854,0.642,1.084
	c0.378,0.231,0.839,0.345,1.38,0.345c0.378,0,0.859-0.147,1.442-0.443c0.583-0.295,1.171-0.67,1.762-1.123
	c0.592-0.452,1.155-0.953,1.689-1.503c0.534-0.551,0.94-1.081,1.22-1.591c0.296-0.345,0.559-0.739,0.789-1.184
	c0.395,0.1,0.826,0.1,1.295,0c0.468-0.098,0.915-0.287,1.343-0.566c-0.263,0.378-0.535,0.785-0.814,1.221s-0.558,0.892-0.838,1.369
	c-0.641,1.167-0.903,2.095-0.789,2.786s0.567,1.035,1.356,1.035c0.476,0,1.01-0.147,1.602-0.443c0.592-0.295,1.175-0.67,1.75-1.123
	c0.288-0.227,0.566-0.465,0.834-0.716c-0.055,0.418-0.058,0.79,0.004,1.098c-0.444,0.148-0.863,0.321-1.257,0.518
	c-0.559,0.313-0.975,0.674-1.246,1.085c-0.271,0.411-0.415,0.83-0.431,1.257c-0.016,0.427,0.086,0.834,0.309,1.221
	c0.222,0.385,0.551,0.694,0.986,0.924c0.436,0.23,0.961,0.361,1.579,0.395c0.616,0.033,1.317-0.09,2.107-0.37
	c0.92-0.329,1.681-0.842,2.28-1.541c0.6-0.699,1.137-1.466,1.615-2.306c0.608-0.198,1.216-0.435,1.824-0.715
	c0.607-0.278,1.196-0.604,1.764-0.973c0.566-0.37,1.104-0.797,1.614-1.283c0.51-0.484,0.97-1.048,1.381-1.689
	c0.197-0.296,0.291-0.53,0.283-0.702C154.211,13.442,154.145,13.331,154.022,13.281z M76.819,15.524
	c-0.674,0.724-1.356,1.085-2.046,1.085c-0.296,0-0.534-0.066-0.714-0.197c-0.182-0.131-0.295-0.304-0.346-0.518
	c-0.049-0.214-0.046-0.459,0.013-0.74c0.057-0.28,0.168-0.559,0.333-0.839c0.246-0.41,0.542-0.776,0.887-1.096
	c0.345-0.321,0.703-0.58,1.072-0.777c0.37-0.197,0.735-0.324,1.097-0.382c0.361-0.058,0.682-0.037,0.961,0.062
	c0.247,0.083,0.453,0.239,0.617,0.469C78.118,13.824,77.493,14.802,76.819,15.524z M126.743,15.524
	c-0.674,0.724-1.356,1.085-2.046,1.085c-0.296,0-0.534-0.066-0.715-0.197s-0.295-0.304-0.346-0.518
	c-0.049-0.214-0.045-0.459,0.013-0.74c0.057-0.28,0.168-0.559,0.333-0.839c0.247-0.41,0.542-0.776,0.888-1.096
	c0.345-0.321,0.703-0.58,1.072-0.777c0.37-0.197,0.735-0.324,1.098-0.382c0.361-0.058,0.682-0.037,0.96,0.062
	c0.247,0.083,0.453,0.239,0.617,0.469C128.041,13.824,127.417,14.802,126.743,15.524z M142.927,20.678
	c-0.6,0.361-1.13,0.542-1.59,0.542c-0.377,0-0.657-0.09-0.838-0.271s-0.254-0.395-0.223-0.641c0.033-0.247,0.182-0.498,0.444-0.751
	c0.263-0.256,0.657-0.474,1.183-0.654c0.444-0.163,0.917-0.245,1.418-0.245s0.998,0.049,1.491,0.147
	C144.156,19.692,143.527,20.315,142.927,20.678z"/>
<path fill="#FFFFFF" d="M74.556,4.406c-0.255-0.51-0.674-0.941-1.257-1.295c-0.583-0.354-1.329-0.538-2.231-0.555
	c-1.184-0.032-2.31,0.189-3.377,0.666c-1.069,0.476-1.997,1.102-2.786,1.874c-0.231-0.396-0.392-0.827-0.482-1.295
	c-0.09-0.468-0.094-0.965-0.012-1.492c0.082-0.46,0.028-0.748-0.161-0.863c-0.188-0.114-0.431-0.106-0.728,0.025
	c-0.295,0.131-0.607,0.37-0.937,0.715c-0.329,0.345-0.596,0.748-0.801,1.208c-0.205,0.46-0.316,0.961-0.333,1.503
	c-0.017,0.543,0.147,1.077,0.492,1.603c0.345,0.575,0.781,1.059,1.308,1.455c-0.131,0.477-0.176,0.957-0.135,1.441
	c0.04,0.486,0.151,0.954,0.333,1.406c0.181,0.452,0.426,0.88,0.739,1.282c0.312,0.403,0.683,0.76,1.109,1.072
	c0.46,0.346,0.83,0.728,1.11,1.146c0.279,0.42,0.481,0.847,0.604,1.282c0.124,0.436,0.173,0.871,0.147,1.307
	c-0.024,0.436-0.119,0.85-0.283,1.245c-0.23,0.543-0.633,1.019-1.209,1.431c-0.575,0.41-1.224,0.665-1.947,0.764
	c-0.658,0.099-1.221,0.032-1.689-0.198c-0.468-0.23-0.842-0.546-1.122-0.949c-0.28-0.402-0.46-0.859-0.542-1.368
	c-0.083-0.51-0.066-0.994,0.049-1.455c0.114-0.461,0.332-0.871,0.653-1.233c0.319-0.361,0.735-0.591,1.245-0.69
	c0.328-0.065,0.493-0.193,0.493-0.382c0-0.188-0.116-0.378-0.345-0.567c-0.231-0.188-0.543-0.354-0.937-0.494
	c-0.395-0.14-0.822-0.185-1.282-0.136c-0.13,0.014-0.261,0.052-0.391,0.088c-0.885,0.289-1.782,1.21-2.246,1.745
	c-0.008,0.014-0.018,0.026-0.026,0.041c-0.003,0.004-0.004,0.009-0.007,0.014c-0.066,0.082-0.138,0.153-0.206,0.231
	c-0.053,0.067-0.084,0.107-0.084,0.107l-0.006-0.006c-0.237,0.262-0.482,0.508-0.75,0.715c-0.658,0.51-1.348,0.764-2.072,0.764
	c-0.361,0-0.596-0.111-0.702-0.333c-0.107-0.222-0.14-0.509-0.099-0.862c0.04-0.354,0.139-0.741,0.296-1.159
	c0.155-0.42,0.324-0.827,0.504-1.221c0.116-0.263,0.284-0.632,0.506-1.109c0.221-0.477,0.46-0.999,0.715-1.564
	c0.254-0.568,0.526-1.161,0.813-1.776c0.287-0.616,0.559-1.2,0.813-1.75c0.255-0.551,0.481-1.04,0.678-1.467
	s0.346-0.748,0.444-0.962c0.131-0.312,0.16-0.53,0.086-0.653s-0.209-0.188-0.407-0.197c-0.198-0.009-0.439,0.024-0.727,0.098
	c-0.288,0.074-0.58,0.153-0.875,0.234c-0.296,0.083-0.526,0.165-0.69,0.247c-0.164,0.083-0.304,0.194-0.419,0.333
	c-0.116,0.139-0.225,0.32-0.332,0.543c-0.108,0.221-0.243,0.513-0.408,0.874c-0.099,0.231-0.233,0.53-0.407,0.9
	c-0.173,0.37-0.358,0.768-0.554,1.196c-0.198,0.427-0.399,0.871-0.605,1.331c-0.206,0.461-0.39,0.888-0.555,1.283
	c-0.443-0.279-0.945-0.436-1.504-0.469s-1.133,0.058-1.725,0.271c-0.593,0.215-1.18,0.535-1.763,0.962
	c-0.584,0.427-1.114,0.961-1.59,1.602c-0.228,0.311-0.414,0.62-0.574,0.928c-0.384,0.541-0.781,1.015-1.19,1.414
	c-0.418,0.412-0.825,0.736-1.219,0.974c-0.395,0.238-0.752,0.386-1.073,0.443c-0.321,0.059-0.572,0.021-0.752-0.11
	c-0.196-0.148-0.337-0.358-0.418-0.629c-0.084-0.271-0.116-0.583-0.1-0.937c0.016-0.353,0.083-0.739,0.197-1.159
	c0.115-0.419,0.271-0.851,0.469-1.293c0.328-0.248,0.694-0.514,1.096-0.802c0.403-0.288,0.806-0.587,1.209-0.9
	c0.402-0.312,0.804-0.628,1.208-0.949c0.402-0.321,0.768-0.629,1.097-0.925c1.134-1.035,1.861-1.963,2.182-2.786
	c0.32-0.822,0.208-1.414-0.333-1.775c-0.329-0.213-0.744-0.272-1.245-0.173c-0.502,0.099-1.061,0.362-1.678,0.789
	c-0.616,0.427-1.273,1.015-1.972,1.763c-0.698,0.748-1.417,1.664-2.157,2.749c-1.068,1.562-1.809,2.93-2.219,4.104
	c-0.021,0.058-0.034,0.108-0.052,0.165c-0.246,0.41-0.541,0.794-0.885,1.154C37.2,15.32,36.839,15.64,36.46,15.92
	c-0.378,0.279-0.752,0.501-1.121,0.665c-0.37,0.165-0.711,0.247-1.023,0.247c-0.198,0-0.317-0.065-0.357-0.198
	c-0.042-0.131-0.025-0.299,0.049-0.505c0.074-0.205,0.177-0.435,0.308-0.69c0.132-0.253,0.271-0.513,0.419-0.776
	c0.147-0.247,0.316-0.534,0.504-0.863c0.19-0.329,0.383-0.669,0.58-1.023c0.198-0.353,0.398-0.706,0.604-1.06
	c0.206-0.354,0.39-0.687,0.555-0.999c0.165-0.296,0.243-0.522,0.235-0.678c-0.01-0.155-0.084-0.263-0.223-0.32
	c-0.139-0.058-0.324-0.078-0.555-0.062c-0.229,0.017-0.476,0.041-0.739,0.074c-0.263,0.049-0.484,0.095-0.665,0.136
	c-0.182,0.041-0.342,0.111-0.482,0.209c-0.14,0.099-0.271,0.239-0.394,0.419c-0.124,0.18-0.259,0.427-0.407,0.739
	c-0.148,0.313-0.3,0.629-0.456,0.949c-0.157,0.321-0.32,0.666-0.494,1.036c-0.104,0.224-0.213,0.464-0.323,0.712
	c-0.229,0.36-0.491,0.705-0.797,1.025c-0.345,0.362-0.706,0.682-1.084,0.962c-0.378,0.279-0.751,0.501-1.122,0.665
	c-0.37,0.165-0.711,0.247-1.023,0.247c-0.197,0-0.316-0.065-0.357-0.198c-0.042-0.131-0.025-0.299,0.049-0.505
	c0.074-0.205,0.176-0.435,0.308-0.69c0.131-0.253,0.271-0.513,0.42-0.776c0.147-0.247,0.315-0.534,0.505-0.863
	c0.188-0.329,0.382-0.669,0.579-1.023c0.197-0.353,0.398-0.706,0.604-1.06c0.206-0.354,0.39-0.687,0.555-0.999
	c0.165-0.296,0.238-0.522,0.222-0.678c-0.016-0.155-0.09-0.263-0.222-0.32C30.98,9.661,30.8,9.641,30.57,9.657
	c-0.231,0.017-0.478,0.041-0.741,0.074c-0.263,0.049-0.484,0.095-0.665,0.136c-0.182,0.041-0.342,0.111-0.481,0.209
	c-0.14,0.099-0.271,0.239-0.395,0.419c-0.124,0.18-0.259,0.427-0.407,0.739c-0.181,0.345-0.354,0.694-0.517,1.048
	c-0.165,0.354-0.345,0.743-0.543,1.171c-0.247,0.411-0.48,0.81-0.702,1.196c-0.223,0.386-0.449,0.727-0.678,1.023
	c-0.231,0.296-0.473,0.534-0.728,0.715c-0.254,0.181-0.538,0.271-0.851,0.271c-0.197,0-0.341-0.083-0.431-0.247
	s-0.062-0.465,0.086-0.9c0.147-0.436,0.443-1.039,0.888-1.811c0.443-0.772,1.1-1.767,1.972-2.984
	c0.197-0.279,0.304-0.493,0.32-0.641c0.016-0.147-0.029-0.254-0.135-0.32c-0.107-0.066-0.268-0.095-0.48-0.086
	c-0.214,0.008-0.452,0.028-0.715,0.061c-0.28,0.049-0.514,0.098-0.703,0.147c-0.189,0.05-0.362,0.129-0.519,0.235
	c-0.156,0.107-0.312,0.25-0.468,0.431c-0.156,0.18-0.333,0.411-0.53,0.69c-0.428,0.592-0.854,1.286-1.282,2.083
	c-0.427,0.798-0.772,1.657-1.035,2.577c-0.263,0.937-0.284,1.685-0.061,2.243c0.222,0.56,0.718,0.838,1.49,0.838
	c0.51,0,1.027-0.139,1.554-0.419c0.525-0.279,1.035-0.706,1.528-1.282c-0.033,0.592,0.152,1.023,0.555,1.294
	c0.403,0.272,0.892,0.407,1.468,0.407c0.394,0,0.878-0.147,1.455-0.443c0.575-0.295,1.162-0.67,1.762-1.123
	c0.246-0.185,0.481-0.383,0.714-0.585c-0.034,0.161-0.071,0.323-0.074,0.463c-0.007,0.386,0.074,0.706,0.247,0.961
	c0.172,0.254,0.416,0.44,0.727,0.555c0.313,0.115,0.657,0.172,1.037,0.172c0.394,0,0.878-0.147,1.454-0.443
	c0.575-0.295,1.162-0.67,1.763-1.123c0.523-0.394,1.013-0.833,1.479-1.301c-0.01,0.163-0.019,0.326-0.013,0.476
	c0.033,0.79,0.251,1.386,0.653,1.788c0.402,0.403,0.892,0.604,1.467,0.604c0.542,0,1.102-0.119,1.677-0.357
	c0.575-0.239,1.138-0.562,1.688-0.974c0.486-0.363,0.948-0.796,1.396-1.28c0.013,0.239,0.04,0.471,0.096,0.688
	c0.147,0.577,0.435,1.04,0.863,1.394c0.427,0.353,0.962,0.529,1.603,0.529c0.41,0,0.796-0.065,1.159-0.198
	c0.361-0.131,0.69-0.304,0.986-0.518c0.296-0.212,0.558-0.439,0.789-0.678c0.23-0.238,0.436-0.472,0.616-0.702
	c0.033,0.592,0.206,1.089,0.519,1.492c0.312,0.403,0.755,0.604,1.331,0.604c0.509,0,1.063-0.127,1.665-0.382
	c0.599-0.255,1.19-0.601,1.774-1.035c0.274-0.205,0.541-0.427,0.801-0.659c0.005,0.157,0.006,0.314,0.031,0.474
	c0.139,0.904,0.509,1.716,1.108,2.441c0.6,0.722,1.39,1.314,2.368,1.774c0.977,0.46,2.049,0.674,3.217,0.641
	c0.69-0.016,1.365-0.14,2.022-0.37c0.656-0.23,1.256-0.534,1.799-0.912c0.542-0.378,1.019-0.818,1.431-1.319
	c0.41-0.501,0.722-1.023,0.936-1.565c0.214-0.576,0.354-1.176,0.419-1.8c0.066-0.625,0.021-1.249-0.135-1.874
	c-0.156-0.625-0.428-1.237-0.814-1.837c-0.386-0.6-0.924-1.17-1.615-1.713c-0.329-0.229-0.624-0.476-0.887-0.739
	c-0.264-0.263-0.485-0.518-0.666-0.765c1.167,0.28,2.325,0.395,3.476,0.345c1.068-0.033,1.972-0.234,2.712-0.603
	c0.739-0.371,1.31-0.814,1.713-1.332c0.402-0.517,0.641-1.076,0.714-1.677C74.901,5.471,74.811,4.916,74.556,4.406z M44.276,8.351
	c0.377-0.477,0.719-0.888,1.023-1.233c0.303-0.345,0.567-0.604,0.789-0.776c0.222-0.172,0.383-0.226,0.48-0.16
	c0.083,0.082,0.042,0.238-0.124,0.468c-0.164,0.23-0.411,0.513-0.739,0.851c-0.329,0.337-0.719,0.707-1.17,1.109
	c-0.453,0.402-0.925,0.81-1.419,1.22C43.512,9.321,43.897,8.827,44.276,8.351z M50.119,15.438c-0.543,0.782-1.159,1.172-1.849,1.172
	c-0.295,0-0.534-0.066-0.715-0.197s-0.296-0.304-0.345-0.518c-0.049-0.214-0.045-0.459,0.012-0.74
	c0.058-0.28,0.168-0.559,0.333-0.839c0.246-0.41,0.542-0.776,0.888-1.096c0.345-0.321,0.702-0.58,1.072-0.777
	c0.371-0.197,0.731-0.324,1.084-0.382c0.353-0.058,0.67-0.037,0.949,0.062l0.246,0.098C51.22,13.585,50.662,14.658,50.119,15.438z
	 M72.165,7.093C71.811,7.455,71.29,7.693,70.6,7.808c-0.641,0.098-1.311,0.062-2.009-0.111c-0.7-0.173-1.352-0.447-1.96-0.826
	l0.271-0.394c0.214-0.296,0.48-0.563,0.801-0.801c0.32-0.239,0.666-0.448,1.035-0.628c0.371-0.181,0.753-0.321,1.147-0.419
	c0.395-0.1,0.765-0.148,1.109-0.148c0.592,0,1.035,0.152,1.331,0.456c0.296,0.304,0.432,0.649,0.407,1.035
	C72.707,6.357,72.518,6.731,72.165,7.093z"/>
</svg>
